<?xml version="1.0" standalone="no"?>
<!DOCTYPE svg PUBLIC "-//W3C//DTD SVG 1.1//EN" "http://www.w3.org/Graphics/SVG/1.1/DTD/svg11.dtd" >
<svg xmlns="http://www.w3.org/2000/svg">
<metadata>Generated by IcoMoon</metadata>
<defs>
<font id="icomoon" horiz-adv-x="1024">
<font-face units-per-em="1024" ascent="960" descent="-64" />
<missing-glyph horiz-adv-x="1024" />
<glyph unicode="&#x20;" horiz-adv-x="512" d="" />
<glyph unicode="&#xe900;" glyph-name="creativity" d="M690.33 333.312c2.598 13.811 2.534 27.994-0.205 41.779l37.517 90.547c0 0.064 0 0.128 0 0.192 6.080 16.64 14.989 32.115 26.342 45.722 2.816 2.982 3.955 7.181 3.021 11.174l-15.386 66.445c-0.179 0.691-0.461 1.357-0.819 1.984-0.064 0.128-0.090 0.269-0.154 0.384s-0.346 0.397-0.512 0.614c-0.333 0.486-0.717 0.934-1.152 1.344-0.282 0.205-0.589 0.384-0.883 0.538-0.397 0.294-0.832 0.55-1.267 0.768-0.614 0.23-1.267 0.384-1.92 0.474-0.179 0-0.346 0.115-0.538 0.141-1.574 0.102-3.136-0.243-4.518-1.011-0.115-0.064-0.269-0.090-0.397-0.166h-0.090l-57.843-36.096c-3.507-2.176-5.683-5.965-5.786-10.086-1.613-17.69-6.259-34.957-13.773-51.059v-0.090l-18.752-45.325c-9.203 4.89-19.059 8.448-29.261 10.573 3.866 26.662 5.286 53.619 4.25 80.55 15.245 18.291 22.566 41.92 20.326 65.638-5.12 47.744-48.269 82.214-50.112 83.674-2.765 2.189-6.63 2.355-9.574 0.41s-4.326-5.542-3.418-8.947c4.224-15.846 0.563-32.563-30.592-66.944-14.003-13.517-18.445-34.163-11.226-52.25 2.752-6.912 6.694-13.286 11.661-18.842-1.984-12.659-3.546-24.64-4.621-36.314-1.843-19.302-2.33-38.72-1.421-58.099-7.309-3.968-14.157-8.73-20.39-14.221l-39.731 169.894c0 0.179-0.166 0.294-0.205 0.448-0.141 0.55-0.32 1.075-0.576 1.587l-40.589 74.944c-4.058 7.501-12.646 11.366-20.941 9.421-8.307-1.946-14.285-9.216-14.592-17.741l-3.085-85.146c0-0.614 0.064-1.229 0.205-1.83 0-0.128 0-0.243 0-0.371l40.538-172.992c-6.4-0.282-12.749-1.229-18.944-2.829l-44.595 107.686c-3.571 8.23-13.056 12.109-21.376 8.755l-68.147-28.211c-8.346-3.482-12.301-13.043-8.87-21.402l60.467-145.882c-35.443-1.856-62.95-31.616-62.042-67.098s29.926-63.77 65.408-63.808h360.448c23.411 0.346 44.864 13.146 56.282 33.587 11.418 20.454 11.046 45.427-0.947 65.536s-33.818 32.282-57.216 31.949v0zM681.971 545.357l34.342 21.427-12.16-29.363c-1.741-4.186 0.243-8.973 4.429-10.714 4.186-1.728 8.973 0.256 10.714 4.429l12.16 29.363 9.101-39.424c-9.741-11.878-17.741-25.088-23.757-39.219-8.538-3.955-18.355-4.16-27.046-0.563s-15.488 10.675-18.739 19.507c5.747 14.259 9.434 29.261 10.957 44.557v0zM663.13 481.037c5.414-6.63 12.454-11.75 20.416-14.874 6.336-2.726 13.146-4.16 20.045-4.224 1.651 0 3.315 0.102 4.954 0.294l-26.138-63.078c-7.821 17.254-19.942 32.23-35.174 43.494l15.898 38.387zM550.899 539.546l41.152-2.509c0.256-7.654 0.166-15.565-0.090-23.603-13.709-0.973-27.494-0.32-41.037 1.984-1.037 0.154-2.035 0.269-3.059 0.41 0.819 7.718 1.818 15.526 3.021 23.731h0.013zM546.995 605.517c21.747 24 33.024 42.445 35.648 59.802 15.629-16.090 25.958-36.582 29.568-58.726 1.715-19.264-4.237-38.451-16.576-53.35-16.179 0.986-32.179 1.971-48.013 2.944-6.797 6.349-10.714 15.219-10.829 24.525s3.571 18.266 10.202 24.794v0zM546.368 499.482l2.381-0.307c10.56-1.626 21.21-2.534 31.885-2.714 3.392 0 6.963 0.269 10.547 0.55-0.742-10.547-1.958-21.555-3.52-32.934-2.022 0.102-4.006 0.307-6.042 0.307-12.365-0.026-24.64-2.138-36.301-6.246-0.384 13.786-0.038 27.597 1.037 41.357h0.013zM483.008 403.686l-23.437 99.84c-1.101 4.326-5.466 6.989-9.805 5.965-4.352-1.011-7.078-5.338-6.144-9.702l21.069-89.856c-5.798 2.074-11.776 3.571-17.856 4.454l-35.955 153.434c5.030-2.291 10.509-3.482 16.038-3.494 0.512 0 1.062 0.077 1.587 0.102l5.786-24.73c0.627-2.893 2.765-5.235 5.594-6.106s5.914-0.154 8.064 1.894c2.15 2.035 3.021 5.082 2.304 7.949l-5.798 24.742c5.555 2.458 10.458 6.195 14.31 10.893l36.557-156.301c-4.762-5.914-8.883-12.314-12.314-19.085v0zM432.96 581.453c-10.47-2.035-21.171 2.253-27.354 10.957l1.050 28.851c2.854-0.525 5.747-0.806 8.64-0.819 2.803-0.013 5.594 0.294 8.32 0.922 5.53 1.459 10.701 4.019 15.181 7.552l13.798-25.459c-1.638-10.56-9.331-19.174-19.635-22.016v0.013zM410.522 677.158c1.114 0.256 2.266-0.256 2.816-1.254l17.562-32.486c-3.174-2.867-6.95-4.966-11.059-6.144-4.198-0.781-8.512-0.576-12.621 0.589l1.331 36.915c0.038 1.152 0.845 2.112 1.971 2.381v0zM351.232 513.536l6.259-15.117-30.31-12.544c-3.597-1.51-5.619-5.338-4.864-9.165 0.768-3.814 4.109-6.579 8.013-6.579 1.075 0 2.138 0.205 3.136 0.614l30.31 12.557 6.272-15.142-15.168-6.285c-3.61-1.498-5.67-5.338-4.902-9.165 0.768-3.84 4.134-6.592 8.051-6.592 1.075 0 2.138 0.218 3.123 0.627l15.168 6.285 6.259-15.13-30.336-12.582c-3.61-1.498-5.67-5.338-4.902-9.178s4.134-6.592 8.051-6.592c1.075 0 2.138 0.218 3.136 0.627l30.31 12.544 6.63-16c-26.701-12.186-46.272-36.006-53.043-64.563l-59.379 143.168 68.186 28.211zM692.224 218.624h-360.448c-27.149 0-49.152 22.003-49.152 49.152s22.003 49.152 49.152 49.152c4.749 0.013 9.472-0.666 14.016-2.035 2.458-0.742 5.12-0.294 7.194 1.216s3.315 3.904 3.366 6.477c0.589 29.197 17.459 55.603 43.712 68.403s57.459 9.818 80.806-7.706c2.061-1.536 4.736-2.010 7.206-1.293 2.47 0.73 4.454 2.56 5.363 4.979 16 42.662 60.237 67.75 105.062 59.584 44.826-8.154 77.389-47.206 77.35-92.774 0.013-9.37-1.382-18.688-4.134-27.635-0.87-2.79-0.179-5.811 1.792-7.962s4.941-3.085 7.795-2.458c3.584 0.794 7.258 1.19 10.931 1.203 27.149 0 49.152-22.016 49.152-49.152s-22.016-49.152-49.165-49.152v0zM583.155 565.146c2.573-0.013 4.992 1.19 6.554 3.238 10.227 13.85 14.182 31.334 10.893 48.23-0.691 2.893-2.906 5.171-5.773 5.965s-5.939-0.026-8.026-2.138c-2.086-2.112-2.867-5.197-2.035-8.051 1.958-12.006-0.96-24.294-8.128-34.125-1.869-2.483-2.163-5.811-0.781-8.576 1.382-2.778 4.224-4.531 7.322-4.531l-0.026-0.013zM572.378 316.928c-6.093-0.026-12.096-1.421-17.574-4.096-14.746 20.16-42.253 26.074-63.974 13.734-21.709-12.339-30.72-39.002-20.941-61.99 1.28-3.021 4.25-4.979 7.539-4.979 1.101 0 2.189 0.218 3.213 0.653 1.997 0.845 3.584 2.47 4.39 4.48s0.794 4.275-0.064 6.272c-1.779 4.16-2.701 8.627-2.701 13.158 0 18.099 14.669 32.768 32.768 32.768 12.71 0.064 24.282-7.309 29.619-18.842 0.179-0.269 0.371-0.525 0.576-0.768 0.128-0.282 0.269-0.55 0.435-0.819 0.141-0.179 0.358-0.256 0.525-0.435 0.384-0.397 0.806-0.755 1.267-1.062 0.41-0.32 0.845-0.589 1.318-0.819 0.474-0.205 0.96-0.358 1.472-0.461 0.499-0.128 1.024-0.205 1.536-0.243 1.062 0.013 2.125 0.192 3.136 0.525 0.218 0.038 0.435 0.090 0.653 0.154 0.269 0.179 0.525 0.371 0.755 0.576 0.294 0.128 0.589 0.269 0.858 0.435 4.301 3.482 9.664 5.376 15.206 5.376 9.574-0.013 18.278-5.594 22.285-14.298 1.882-4.122 6.746-5.939 10.854-4.058 4.122 1.869 5.939 6.733 4.058 10.854-6.694 14.541-21.222 23.872-37.21 23.885v0zM411.11 373.85c-1.229-0.397-30.17-10.419-30.17-40.55 0-4.518 3.661-8.192 8.192-8.192 4.518 0 8.192 3.674 8.192 8.192 0.666 11.43 8.192 21.312 19.021 25.011 4.301 1.446 6.605 6.106 5.171 10.394-1.446 4.301-6.106 6.618-10.406 5.171v-0.026zM526.4 382.707c0.653-0.166 1.318-0.256 1.984-0.243 3.75 0 7.027 2.56 7.936 6.195 3.776 15.296 17.318 26.176 33.062 26.56 4.531 0.013 8.179 3.686 8.166 8.218s-3.686 8.179-8.205 8.166c-23.283-0.307-43.405-16.333-48.909-38.976-1.101-4.365 1.574-8.819 5.965-9.92v0z" />
<glyph unicode="&#xe901;" glyph-name="database" d="M704 523.52h-163.443c9.357 51.968-13.53 104.448-57.971 132.954-44.442 28.518-101.683 27.443-145.024-2.714-43.341-30.144-64.243-83.456-52.966-135.027 11.29-51.571 52.531-91.277 104.512-100.57v-17.523h-7.68c-4.237 0-7.68-3.443-7.68-7.68v-138.24c0-21.21 17.19-38.4 38.4-38.4s38.4 17.19 38.4 38.4v138.24c0 4.237-3.443 7.68-7.68 7.68h-7.68v17.523c10.598 1.894 20.915 5.107 30.72 9.562v-173.005c0.026-21.197 17.203-38.374 38.4-38.4h199.68c21.197 0.026 38.374 17.203 38.4 38.4v230.4c-0.013 21.197-17.19 38.374-38.387 38.4v0zM296.96 546.56c0 46.592 28.070 88.602 71.117 106.432s92.595 7.974 125.542-24.973c32.947-32.947 42.803-82.496 24.973-125.542s-59.84-71.117-106.432-71.117c-63.59 0.064-115.136 51.61-115.2 115.2v0zM435.2 254.72c0-12.723-10.317-23.040-23.040-23.040s-23.040 10.317-23.040 23.040v130.56h46.080v-130.56zM419.84 400.64h-15.36v15.744c2.56-0.154 5.082-0.384 7.68-0.384s5.12 0.243 7.68 0.384v-15.744zM704 231.68h-199.68c-12.723 0-23.040 10.317-23.040 23.040v181.248c5.517 3.443 10.765 7.296 15.706 11.52 2.419-0.499 4.864-0.755 7.334-0.768h199.68c8.333 0.051 16.422 2.816 23.040 7.885v-199.885c0-12.723-10.317-23.040-23.040-23.040v0zM720.346 468.851c-4.339-4.326-10.214-6.771-16.346-6.771h-192.474c11.52 13.466 20.16 29.146 25.408 46.080h167.066c9.318 0.013 17.728-5.594 21.299-14.195s1.626-18.509-4.954-25.114v0zM512 416h184.32v-15.36h-184.32v15.36zM512 369.92h184.32v-15.36h-184.32v15.36zM512 323.84h184.32v-15.36h-184.32v15.36zM512 277.76h184.32v-15.36h-184.32v15.36zM542.72 492.8h15.36v-15.36h-15.36v15.36zM573.44 492.8h15.36v-15.36h-15.36v15.36zM512 546.56c0 40.384-24.32 76.787-61.632 92.237-37.312 15.462-80.256 6.912-108.8-21.645s-37.094-71.501-21.645-108.8c15.45-37.312 51.853-61.632 92.237-61.632 55.117 0.064 99.776 44.723 99.84 99.84v0zM327.68 546.56c0 34.176 20.582 64.973 52.147 78.054 31.565 13.069 67.904 5.85 92.070-18.317s31.386-60.493 18.317-92.070c-13.082-31.565-43.878-52.147-78.054-52.147-46.63 0.051-84.429 37.85-84.48 84.48v0zM412.16 615.68c-38.157-0.051-69.069-30.963-69.12-69.12h15.36c0.038 29.67 24.090 53.722 53.76 53.76v15.36zM604.16 677.12h138.24v-15.36h-138.24v15.36zM558.080 677.12h30.72v-15.36h-30.72v15.36zM604.16 631.040h138.24v-15.36h-138.24v15.36zM558.080 631.040h30.72v-15.36h-30.72v15.36zM604.16 584.96h138.24v-15.36h-138.24v15.36zM558.080 584.96h30.72v-15.36h-30.72v15.36zM404.48 369.92h15.36v-15.36h-15.36v15.36zM404.48 339.2h15.36v-92.16h-15.36v92.16z" />
<glyph unicode="&#xe902;" glyph-name="facebook" d="M588.749 612.147h44.864v78.157c-7.744 1.062-34.368 3.456-65.37 3.456-64.704 0-109.018-40.691-109.018-115.482v-68.838h-71.386v-87.373h71.398v-219.827h87.526v219.814h68.506l10.88 87.373h-79.398v60.186c0.013 25.242 6.81 42.534 41.997 42.534v0z" />
<glyph unicode="&#xe903;" glyph-name="fireworks" d="M587.866 546.074c-1.011 3.123-3.571 5.517-6.746 6.336l-40.115 10.291-22.17 34.97c-1.766 2.778-4.826 4.454-8.115 4.454s-6.349-1.677-8.102-4.454l-22.182-34.97-40.102-10.291c-3.187-0.819-5.734-3.2-6.746-6.336-1.011-3.123-0.358-6.554 1.741-9.088l26.406-31.898-2.611-41.318c-0.205-3.277 1.28-6.438 3.942-8.371s6.118-2.368 9.178-1.165l38.477 15.258 38.49-15.245c1.139-0.461 2.342-0.678 3.546-0.678 1.997 0 3.981 0.614 5.645 1.83 2.662 1.933 4.147 5.094 3.942 8.371l-2.611 41.318 26.406 31.898c2.086 2.534 2.739 5.965 1.728 9.088v0zM542.502 514.394c-1.549-1.882-2.342-4.288-2.189-6.72l1.894-30.016-27.955 11.085c-1.139 0.448-2.342 0.666-3.546 0.666s-2.406-0.218-3.533-0.666l-27.955-11.085 1.894 30.016c0.154 2.432-0.627 4.838-2.189 6.72l-19.174 23.168 29.133 7.475c2.368 0.602 4.416 2.086 5.722 4.16l16.115 25.395 16.115-25.395c1.306-2.061 3.354-3.546 5.722-4.16l29.133-7.475-19.187-23.168zM510.72 426.227c-5.299 0-9.6-4.288-9.6-9.6v-204.787c0-5.299 4.301-9.6 9.6-9.6s9.6 4.301 9.6 9.6v204.787c0 5.299-4.301 9.6-9.6 9.6v0zM661.094 461.581c-3.494 3.994-9.549 4.403-13.542 0.909-16.589-14.502-30.144-34.342-40.243-58.957-13.632-33.178-20.531-74.317-20.531-122.266 0-5.299 4.301-9.6 9.6-9.6s9.6 4.301 9.6 9.6c0 103.885 33.971 149.082 54.221 166.771 3.981 3.482 4.39 9.549 0.896 13.542v0zM755.2 516.467c-1.638 2.854-4.634 4.659-7.91 4.8l-19.866 0.832-13.901 14.208c-2.304 2.355-5.645 3.366-8.858 2.675-3.226-0.678-5.862-2.97-7.002-6.042l-6.925-18.624-17.805-8.832c-2.944-1.459-4.941-4.326-5.286-7.59s1.011-6.49 3.584-8.525l15.578-12.339 2.893-19.661c0.486-3.251 2.586-6.029 5.594-7.373 1.254-0.55 2.586-0.832 3.904-0.832 1.856 0 3.712 0.538 5.312 1.6l16.55 10.995 19.597-3.315c0.563-0.102 1.152-0.154 1.69-0.141 5.274 0.038 9.523 4.326 9.523 9.6 0 1.126-0.192 2.189-0.55 3.187l-5.171 18.534 9.216 17.613c1.549 2.893 1.472 6.387-0.166 9.229v0zM726.656 488.115l2.304-8.23-8.422 1.421c-2.406 0.41-4.89-0.115-6.925-1.472l-7.117-4.736-1.242 8.448c-0.358 2.419-1.626 4.608-3.546 6.118l-6.694 5.312 7.654 3.789c2.189 1.088 3.891 2.97 4.736 5.261l2.97 8.013 5.978-6.106c1.715-1.741 4.019-2.778 6.464-2.88l8.538-0.358-3.955-7.565c-1.126-2.15-1.395-4.672-0.742-7.014v0zM373.888 462.49c-3.994 3.494-10.061 3.085-13.542-0.909-3.494-3.994-3.085-10.061 0.909-13.542 20.25-17.69 54.221-62.886 54.221-166.758 0-5.299 4.301-9.6 9.6-9.6s9.6 4.301 9.6 9.6c0 47.949-6.912 89.088-20.531 122.266-10.112 24.602-23.654 44.442-40.256 58.944v0zM353.779 497.869c-0.346 3.264-2.342 6.131-5.286 7.59l-17.805 8.832-6.925 18.624c-1.139 3.085-3.789 5.363-7.002 6.042-3.213 0.691-6.554-0.32-8.858-2.675l-13.901-14.208-19.853-0.832c-3.29-0.141-6.272-1.946-7.91-4.8-1.638-2.842-1.715-6.336-0.192-9.254l9.216-17.613-5.35-19.136c-0.883-3.174-0.090-6.566 2.112-9.011s5.491-3.597 8.73-3.034l19.597 3.315 16.55-10.995c1.6-1.062 3.456-1.6 5.312-1.6 1.331 0 2.65 0.269 3.904 0.832 3.008 1.331 5.12 4.122 5.594 7.373l2.893 19.661 15.578 12.339c2.586 2.061 3.942 5.274 3.597 8.55v0zM319.718 489.69c-1.92-1.523-3.174-3.699-3.546-6.118l-1.242-8.448-7.117 4.736c-1.587 1.050-3.443 1.6-5.312 1.6-0.538 0-1.075-0.038-1.6-0.141l-8.422-1.421 2.291 8.23c0.666 2.355 0.397 4.864-0.73 7.040l-3.955 7.565 8.538 0.358c2.445 0.102 4.749 1.126 6.464 2.88l5.978 6.093 2.97-8c0.845-2.291 2.547-4.173 4.736-5.261l7.654-3.789-6.707-5.325zM397.773 630.374c14.515-8.166 29.299-31.706 32.294-51.392 0.717-4.762 4.813-8.166 9.485-8.166 0.486 0 0.96 0.038 1.459 0.115 5.235 0.794 8.845 5.683 8.051 10.931-3.878 25.562-22.272 54.221-41.856 65.242-4.621 2.598-10.47 0.96-13.069-3.661-2.624-4.621-0.986-10.47 3.635-13.069v0zM354.854 636.16c15.885 0 28.8 12.915 28.8 28.8s-12.915 28.8-28.8 28.8c-15.885 0-28.8-12.915-28.8-28.8s12.915-28.8 28.8-28.8v0zM354.854 674.56c5.299 0 9.6-4.314 9.6-9.6 0-5.299-4.301-9.6-9.6-9.6-5.286 0-9.6 4.301-9.6 9.6 0 5.286 4.301 9.6 9.6 9.6v0zM580.442 570.931c0.486-0.077 0.973-0.115 1.459-0.115 4.672 0 8.755 3.405 9.485 8.166 2.995 19.699 17.779 43.226 32.294 51.392 4.621 2.598 6.259 8.448 3.661 13.069s-8.461 6.259-13.069 3.661c-19.597-11.021-37.978-39.68-41.869-65.254-0.806-5.235 2.803-10.125 8.038-10.918v0zM666.586 636.16c15.885 0 28.8 12.915 28.8 28.8s-12.915 28.8-28.8 28.8c-15.885 0-28.8-12.915-28.8-28.8s12.928-28.8 28.8-28.8v0zM666.586 674.56c5.299 0 9.6-4.314 9.6-9.6 0-5.299-4.301-9.6-9.6-9.6-5.286 0-9.6 4.301-9.6 9.6 0 5.286 4.314 9.6 9.6 9.6v0zM345.766 361.792c-5.286 0-9.6-4.314-9.6-9.6s4.314-9.6 9.6-9.6c5.286 0 9.6 4.314 9.6 9.6s-4.314 9.6-9.6 9.6v0zM376.486 552.346c0-5.286 4.314-9.6 9.6-9.6s9.6 4.314 9.6 9.6c0 5.286-4.314 9.6-9.6 9.6s-9.6-4.314-9.6-9.6v0zM509.926 634.906c5.286 0 9.6 4.314 9.6 9.6s-4.314 9.6-9.6 9.6c-5.286 0-9.6-4.314-9.6-9.6s4.314-9.6 9.6-9.6v0zM644.326 555.226c0-5.286 4.314-9.6 9.6-9.6s9.6 4.314 9.6 9.6c0 5.286-4.314 9.6-9.6 9.6s-9.6-4.314-9.6-9.6v0zM665.446 361.792c-5.286 0-9.6-4.314-9.6-9.6s4.314-9.6 9.6-9.6c5.286 0 9.6 4.314 9.6 9.6s-4.314 9.6-9.6 9.6v0zM425.075 263.066c-5.286 0-9.6-4.314-9.6-9.6s4.314-9.6 9.6-9.6c5.286 0 9.6 4.314 9.6 9.6 0 5.274-4.314 9.6-9.6 9.6v0zM596.378 263.066c-5.286 0-9.6-4.314-9.6-9.6s4.314-9.6 9.6-9.6c5.286 0 9.6 4.314 9.6 9.6 0 5.274-4.314 9.6-9.6 9.6v0zM457.459 417.587c-5.286 0-9.6-4.314-9.6-9.6s4.314-9.6 9.6-9.6c5.286 0 9.6 4.314 9.6 9.6s-4.314 9.6-9.6 9.6v0zM564.736 421.914c-5.286 0-9.6-4.314-9.6-9.6s4.314-9.6 9.6-9.6c5.286 0 9.6 4.314 9.6 9.6s-4.314 9.6-9.6 9.6v0z" />
<glyph unicode="&#xe904;" glyph-name="js-format" d="M601.91 676.15c-1.44 1.44-3.395 2.25-5.43 2.25h-215.040c-29.676-0.035-53.725-24.084-53.76-53.76v-353.28c0.035-29.676 24.084-53.725 53.76-53.76h261.12c29.676 0.035 53.725 24.084 53.76 53.76v307.2c0 2.035-0.81 3.99-2.25 5.43l-92.16 92.16zM604.16 652.18l65.94-65.94h-27.54c-21.199 0.026-38.374 17.201-38.4 38.4v27.54zM381.44 663.040h207.36v-38.4c0.035-29.676 24.084-53.725 53.76-53.76h38.4v-215.040h-337.92v268.8c0.026 21.199 17.201 38.374 38.4 38.4v0zM642.56 232.96h-261.12c-21.199 0.026-38.374 17.201-38.4 38.4v69.12h337.92v-69.12c-0.026-21.199-17.201-38.374-38.4-38.4v0zM496.64 325.12c-4.239 0-7.68-3.441-7.68-7.68v-46.080c0-4.239-3.441-7.68-7.68-7.68s-7.68 3.441-7.68 7.68-3.441 7.68-7.68 7.68-7.68-3.441-7.68-7.68c0-12.724 10.316-23.040 23.040-23.040s23.040 10.316 23.040 23.040v46.080c0 4.239-3.441 7.68-7.68 7.68v0zM542.72 309.76h15.36c4.239 0 7.68 3.441 7.68 7.68s-3.441 7.68-7.68 7.68h-15.36c-12.724 0-23.040-10.316-23.040-23.040s10.316-23.040 23.040-23.040c4.239 0 7.68-3.441 7.68-7.68s-3.441-7.68-7.68-7.68h-15.36c-4.239 0-7.68-3.441-7.68-7.68s3.441-7.68 7.68-7.68h15.36c12.724 0 23.040 10.316 23.040 23.040s-10.316 23.040-23.040 23.040c-4.239 0-7.68 3.441-7.68 7.68s3.441 7.68 7.68 7.68v0zM550.4 486.4c0-4.239-3.441-7.68-7.68-7.68s-7.68 3.441-7.68 7.68 3.441 7.68 7.68 7.68c4.239 0 7.68-3.441 7.68-7.68v0zM488.96 486.4c0-4.239-3.441-7.68-7.68-7.68s-7.68 3.441-7.68 7.68 3.441 7.68 7.68 7.68 7.68-3.441 7.68-7.68v0zM519.68 486.4c0-4.239-3.441-7.68-7.68-7.68s-7.68 3.441-7.68 7.68 3.441 7.68 7.68 7.68c4.239 0 7.68-3.441 7.68-7.68v0zM412.16 478.72c4.239-0.005 7.675-3.441 7.68-7.68v-30.72c0.015-12.721 10.319-23.025 23.040-23.040 4.239 0 7.68 3.441 7.68 7.68s-3.441 7.68-7.68 7.68c-4.239 0.005-7.675 3.441-7.68 7.68v30.72c0.005 5.67-2.090 11.145-5.88 15.36 3.79 4.215 5.885 9.69 5.88 15.36v30.72c0.005 4.239 3.441 7.675 7.68 7.68 4.239 0 7.68 3.441 7.68 7.68s-3.441 7.68-7.68 7.68c-12.721-0.015-23.025-10.319-23.040-23.040v-30.72c-0.005-4.239-3.441-7.675-7.68-7.68-4.239 0-7.68-3.441-7.68-7.68s3.441-7.68 7.68-7.68v0zM588.8 440.32c-0.005-4.239-3.441-7.675-7.68-7.68-4.239 0-7.68-3.441-7.68-7.68s3.441-7.68 7.68-7.68c12.721 0.015 23.025 10.319 23.040 23.040v30.72c0.005 4.239 3.441 7.675 7.68 7.68 4.239 0 7.68 3.441 7.68 7.68s-3.441 7.68-7.68 7.68c-4.239 0.005-7.675 3.441-7.68 7.68v30.72c-0.015 12.721-10.319 23.025-23.040 23.040-4.239 0-7.68-3.441-7.68-7.68s3.441-7.68 7.68-7.68c4.239-0.005 7.675-3.441 7.68-7.68v-30.72c-0.005-5.67 2.090-11.145 5.88-15.36-3.79-4.215-5.885-9.69-5.88-15.36v-30.72z" />
<glyph unicode="&#xe905;" glyph-name="ui" d="M675.84 284.16h-20.48v-40.96h-184.32v-20.48h184.32v-30.72c0-16.965-13.755-30.72-30.72-30.72h-225.28c-10.975 0.015-21.115 5.865-26.625 15.36l-17.734-10.24c9.18-15.814 26.075-25.565 44.36-25.6h225.28c28.265 0.035 51.165 22.935 51.2 51.2v92.16zM501.76 202.24h20.48v-20.48h-20.48v20.48zM563.2 478.72v20.48h-31.24c-5.106 65.345-57.015 117.254-122.36 122.36v31.24h-20.48v-31.24c-6.9-0.53-13.745-1.6-20.48-3.195v54.915h163.84v20.48h-163.84v10.24c0 16.965 13.755 30.72 30.72 30.72h225.28c7.48 0 14.705-2.73 20.315-7.68l13.55 15.36c-9.35 8.255-21.395 12.805-33.865 12.8h-225.28c-28.265-0.035-51.165-22.935-51.2-51.2v-92.16c-46.109-19.315-77.535-62.799-81.4-112.64h-31.24v-20.48h31.265c4.829-65.469 56.865-117.54 122.335-122.41v-31.19h20.48v31.19c65.469 4.87 117.505 56.941 122.335 122.41h31.265zM389.12 396.8v-20.010c-14.285 1.285-28.186 5.3-40.96 11.821v18.429c0 28.275 22.925 51.2 51.2 51.2s51.2-22.925 51.2-51.2v-18.429c-12.771-6.531-26.675-10.551-40.96-11.85v20.040h-20.48zM368.64 509.44c0 16.965 13.755 30.72 30.72 30.72s30.72-13.755 30.72-30.72-13.755-30.72-30.72-30.72-30.72 13.755-30.72 30.72v0zM474.45 404.989c-1.105-1.019-2.285-1.839-3.41-2.784v4.835c-0.026 26.749-14.945 51.26-38.694 63.57 16.449 13.855 22.484 36.515 15.109 56.716-7.375 20.205-26.589 33.645-48.095 33.645s-40.719-13.44-48.095-33.645c-7.375-20.201-1.34-42.861 15.109-56.716-23.749-12.31-38.669-36.82-38.694-63.57v-4.884c-1.135 0.929-2.316 1.805-3.41 2.784-21.22 19.031-34.445 45.39-37.005 73.78h19.935v20.48h-19.96c5.005 54.060 47.821 96.876 101.88 101.88v-19.96h20.48v19.96c54.060-5.005 96.876-47.821 101.88-101.88h-19.96v-20.48h19.935c-2.56-28.39-15.785-54.749-37.005-73.78v0.050zM788.48 570.88c5.655 0 10.24 4.585 10.24 10.24v122.88c0 5.655-4.585 10.24-10.24 10.24h-225.28c-5.655 0-10.24-4.585-10.24-10.24v-122.88c0-5.655 4.585-10.24 10.24-10.24h225.28zM573.44 693.76h204.8v-102.4h-204.8v102.4zM593.92 673.28h40.96v-20.48h-40.96v20.48zM655.36 673.28h102.4v-20.48h-102.4v20.48zM593.92 632.32h163.84v-20.48h-163.84v20.48zM786.67 550.4c-7.93-0.015-15.58-2.925-21.505-8.189l-89.325-78.751v86.94h-20.48v-102.4h2.959l-58.254-51.405c-37.901-2.17-67.54-33.51-67.585-71.475v-18.065c0.040-10.161-5.705-19.465-14.815-23.971-4.255-2.12-6.491-6.89-5.4-11.515s5.22-7.895 9.975-7.89h71.68c37.965 0.045 69.306 29.684 71.475 67.585l145.674 165.089c8.456 9.591 10.51 23.246 5.245 34.9-5.26 11.654-16.86 19.145-29.645 19.145v0zM593.92 284.16h-46.83c3.866 7.011 5.885 14.89 5.87 22.895v18.065c0.035 26.675 20.515 48.87 47.105 51.035l44.89-44.89c-2.159-26.591-24.36-47.076-51.035-47.105v0zM795.709 509.9l-140.809-159.589-35.79 35.78 159.589 140.819c4.776 4.191 11.981 3.955 16.475-0.535 4.49-4.494 4.726-11.699 0.535-16.475v0zM215.040 192h225.28c5.655 0 10.24 4.585 10.24 10.24v81.92c0 5.655-4.585 10.24-10.24 10.24h-71.68v51.2h-20.48v-51.2h-133.12c-5.655 0-10.24-4.585-10.24-10.24v-81.92c0-5.655 4.585-10.24 10.24-10.24v0zM225.28 273.92h204.8v-61.44h-204.8v61.44zM245.76 253.44h51.2v-20.48h-51.2v20.48zM317.44 253.44h92.16v-20.48h-92.16v20.48zM215.040 611.84h102.4c5.655 0 10.24 4.585 10.24 10.24v81.92c0 5.655-4.585 10.24-10.24 10.24h-102.4c-5.655 0-10.24-4.585-10.24-10.24v-81.92c0-5.655 4.585-10.24 10.24-10.24v0zM225.28 693.76h81.92v-61.44h-81.92v61.44zM245.76 673.28h40.96v-20.48h-40.96v20.48z" />
<glyph unicode="&#xe906;" glyph-name="user" d="M422.835 480.22c93.26 0 168.865 75.599 168.865 168.865 0 93.26-75.606 168.86-168.865 168.86-93.261 0-168.86-75.601-168.86-168.86 0.090-93.23 75.635-168.776 168.86-168.865v0zM422.835 785.996c75.62 0 136.915-61.306 136.915-136.91 0-75.62-61.295-136.915-136.915-136.915-75.61 0-136.905 61.295-136.905 136.915 0.084 75.575 61.325 136.819 136.905 136.91v0zM861.695 385.8l-137.715 73.33c-4.745 2.586-10.484 2.525-15.174-0.155l-126.051-69.020c-46.17 34.35-101.449 52.241-160.234 52.241-73.17-0.16-141.065-28.6-191.391-80.355-50.97-52.241-78.925-123.656-78.765-201.135 0.026-8.815 7.165-15.955 15.976-15.981l444.444 0.8c20.895-25.939 47.756-46.44 78.281-59.749l18.534-8.146c2.015-0.9 4.2-1.335 6.395-1.28 2.19 0.041 4.355 0.471 6.39 1.28l20.925 9.106c76.895 32.26 126.904 107.525 126.849 190.915v93.935c0.005 5.935-3.245 11.395-8.465 14.214v0zM184.795 176.835c3.355 62.79 27.8 120.136 69.34 162.796 44.244 45.53 104.155 70.615 168.54 70.615h0.48c52.884 0 102.41-16.616 143.465-48.090v-86.426c0.024-34.316 8.585-68.076 24.92-98.25l-406.746-0.645zM838.211 277.65c0.029-70.605-42.376-134.305-107.52-161.524h-0.16l-14.536-6.226-12.145 5.275c-63.895 27.916-105.21 90.985-105.28 160.71v86.431l118.060 64.699 121.581-64.859v-84.506zM672.855 286.115c-5.731 6.701-15.816 7.485-22.525 1.751-6.7-5.731-7.484-15.816-1.75-22.52l36.26-42.335c3.045-3.54 7.475-5.576 12.141-5.591 3.66-0.029 7.219 1.206 10.065 3.515l84.355 68.531c6.835 5.604 7.835 15.689 2.23 22.529-5.595 6.84-15.68 7.84-22.519 2.235l-72.21-58.794-26.045 30.679z" />
<glyph unicode="&#xe907;" glyph-name="data" d="M259.648 534.81c1.869-1.869 4.314-2.803 6.771-2.803 2.445 0 4.902 0.934 6.771 2.803 3.738 3.738 3.738 9.805 0 13.542l-23.245 23.245 23.245 23.245c3.738 3.75 3.738 9.805 0 13.542s-9.805 3.738-13.53 0l-30.016-30.016c-1.792-1.792-2.803-4.237-2.803-6.771s1.011-4.979 2.803-6.771l30.003-30.016zM354.637 571.584l-23.245-23.232c-3.738-3.738-3.738-9.805 0-13.542 1.869-1.869 4.314-2.803 6.758-2.803s4.902 0.934 6.771 2.803l30.016 30.016c3.738 3.738 3.738 9.805 0 13.53l-30.016 30.016c-3.738 3.738-9.792 3.738-13.53 0-3.75-3.738-3.75-9.805 0-13.542l23.245-23.245zM288.013 532.672c1.152-0.448 2.342-0.666 3.494-0.666 3.827 0 7.437 2.304 8.922 6.080l23.578 60.032c1.946 4.915-0.486 10.47-5.402 12.403s-10.47-0.486-12.403-5.414l-23.578-60.019c-1.946-4.928 0.474-10.483 5.389-12.416v0zM241.818 475.84h64.486c5.286 0 9.574 4.288 9.574 9.574s-4.288 9.574-9.574 9.574h-64.486c-5.286 0-9.574-4.288-9.574-9.574s4.288-9.574 9.574-9.574v0zM454.835 494.989h-113.37c-5.286 0-9.574-4.288-9.574-9.574s4.288-9.574 9.574-9.574h113.37c5.286 0 9.574 4.288 9.574 9.574s-4.288 9.574-9.574 9.574v0zM241.818 435.469h27.469c5.286 0 9.574 4.288 9.574 9.574s-4.288 9.574-9.574 9.574h-27.469c-5.286 0-9.574-4.288-9.574-9.574s4.288-9.574 9.574-9.574v0zM419.814 454.618c-5.286 0-9.574-4.288-9.574-9.574s4.275-9.574 9.574-9.574h16.73c5.286 0 9.574 4.288 9.574 9.574s-4.288 9.574-9.574 9.574h-16.73zM394.624 445.043c0 5.286-4.288 9.574-9.574 9.574h-82.176c-5.286 0-9.574-4.288-9.574-9.574s4.288-9.574 9.574-9.574h82.176c5.286 0 9.574 4.288 9.574 9.574v0zM457.331 445.043c0-5.286 4.288-9.574 9.574-9.574h31.334c5.286 0 9.574 4.288 9.574 9.574s-4.288 9.574-9.574 9.574h-31.334c-5.286 0-9.574-4.288-9.574-9.574v0zM405.197 563.904h33.050c5.286 0 9.574 4.288 9.574 9.574s-4.288 9.574-9.574 9.574h-33.050c-5.286 0-9.587-4.288-9.587-9.574 0-5.274 4.301-9.574 9.587-9.574v0zM475.264 563.904h201.664c5.286 0 9.574 4.288 9.574 9.574s-4.275 9.574-9.574 9.574h-201.664c-5.286 0-9.574-4.288-9.574-9.574 0-5.274 4.275-9.574 9.574-9.574v0zM646.298 540.941h-81.69c-5.286 0-9.574-4.288-9.574-9.574s4.288-9.574 9.574-9.574h81.69c5.286 0 9.574 4.288 9.574 9.574-0.013 5.286-4.301 9.574-9.574 9.574v0zM533.965 540.941h-28.083c-5.286 0-9.574-4.288-9.574-9.574s4.275-9.574 9.574-9.574h28.083c5.286 0 9.574 4.288 9.574 9.574s-4.275 9.574-9.574 9.574v0zM405.197 521.792h68.787c5.286 0 9.574 4.288 9.574 9.574s-4.288 9.574-9.574 9.574h-68.787c-5.286 0-9.587-4.288-9.587-9.574s4.301-9.574 9.587-9.574v0zM385.165 414.579h-64.486c-5.286 0-9.574-4.288-9.574-9.574s4.288-9.574 9.574-9.574h64.486c5.286 0 9.574 4.288 9.574 9.574s-4.288 9.574-9.574 9.574v0zM291.354 414.579h-49.536c-5.286 0-9.574-4.288-9.574-9.574s4.288-9.574 9.574-9.574h49.536c5.286 0 9.574 4.288 9.574 9.574s-4.275 9.574-9.574 9.574v0zM502.067 414.579h-84.237c-5.286 0-9.574-4.288-9.574-9.574s4.275-9.574 9.574-9.574h84.237c5.286 0 9.574 4.288 9.574 9.574-0.013 5.286-4.288 9.574-9.574 9.574v0zM615.987 463.757h-46.067c-5.286 0-9.574-4.288-9.574-9.574s4.288-9.574 9.574-9.574h46.067c5.286 0 9.574 4.288 9.574 9.574s-4.288 9.574-9.574 9.574v0zM695.923 444.608h65.024c5.286 0 9.574 4.288 9.574 9.574s-4.288 9.574-9.574 9.574h-65.024c-5.286 0-9.574-4.288-9.574-9.574s4.288-9.574 9.574-9.574v0zM663.398 463.757h-14.899c-5.286 0-9.587-4.288-9.587-9.574s4.288-9.574 9.587-9.574h14.899c5.286 0 9.574 4.288 9.574 9.574s-4.275 9.574-9.574 9.574v0zM569.92 340.288h46.067c5.286 0 9.574 4.275 9.574 9.574 0 5.286-4.288 9.574-9.574 9.574h-46.067c-5.286 0-9.574-4.288-9.574-9.574s4.288-9.574 9.574-9.574v0zM695.923 340.288h65.024c5.286 0 9.574 4.275 9.574 9.574 0 5.286-4.288 9.574-9.574 9.574h-65.024c-5.286 0-9.574-4.288-9.574-9.574s4.288-9.574 9.574-9.574v0zM648.499 340.288h14.899c5.286 0 9.574 4.275 9.574 9.574 0 5.286-4.288 9.574-9.574 9.574h-14.899c-5.286 0-9.574-4.288-9.574-9.574s4.288-9.574 9.574-9.574v0zM615.987 255.104h-46.067c-5.286 0-9.574-4.288-9.574-9.574s4.288-9.574 9.574-9.574h46.067c5.286 0 9.574 4.288 9.574 9.574 0 5.299-4.288 9.574-9.574 9.574v0zM760.947 255.104h-65.024c-5.286 0-9.574-4.288-9.574-9.574s4.275-9.574 9.574-9.574h65.024c5.286 0 9.574 4.288 9.574 9.574 0 5.299-4.275 9.574-9.574 9.574v0zM663.398 255.104h-14.899c-5.286 0-9.587-4.288-9.587-9.574s4.288-9.574 9.587-9.574h14.899c5.286 0 9.574 4.288 9.574 9.574 0 5.299-4.275 9.574-9.574 9.574v0zM796.275 773.12h-569.818c-23.232 0-42.138-18.893-42.138-42.125v-463.181c0-23.232 18.906-42.125 42.138-42.125h36.019c5.286 0 9.574 4.275 9.574 9.574 0 5.286-4.288 9.574-9.574 9.574h-36.019c-12.685 0-22.989 10.304-22.989 22.989v36.301h348.749v-16.499h-7.59c-10.381 0-18.829-8.435-18.829-18.829v-23.974h-205.12c-5.286 0-9.574-4.288-9.574-9.574s4.288-9.574 9.574-9.574h92.045v-34.33h-28.902c-19.277 0-34.97-15.693-34.97-34.97v-20.685c0-8.806 7.155-15.962 15.949-15.962h292.39c8.794 0 15.949 7.155 15.949 15.962v20.685c0 19.277-15.68 34.97-34.97 34.97h-28.89v12.096h176.973c10.381 0 18.829 8.448 18.829 18.829v4.506c18.65 4.326 32.602 21.069 32.602 41.024l0.717 463.194c0 23.232-18.893 42.125-42.125 42.125v0zM544.947 326.912v45.888h240.973v-45.888h-240.973zM571.366 391.949v20.134h188.134v-20.134h-188.134zM759.501 307.776v-20.147h-188.134v20.147h188.134zM431.859 225.69h93.939v-3.405c0-10.381 8.435-18.829 18.829-18.829h45.504v-12.096h-158.272v34.33zM638.182 172.198c8.717 0 15.821-7.091 15.821-15.808v-17.498h-286.016v17.498c0 8.717 7.104 15.808 15.821 15.808h254.374zM785.92 222.605h-240.973v45.875h240.973v-45.875zM818.534 267.814c0-9.267-5.53-17.254-13.453-20.89v21.875c0 10.381-8.448 18.816-18.829 18.816h-7.59v16.512h39.872v-36.314zM818.534 323.264h-13.773c0.192 1.088 0.32 49.856 0.32 49.856 0 10.381-8.448 18.829-18.829 18.829h-7.59v20.134h7.59c10.381 0 18.829 8.448 18.829 18.829v46.528c0 10.381-8.448 18.829-18.829 18.829h-54.067c-5.286 0-9.574-4.288-9.574-9.574s4.275-9.574 9.574-9.574h53.734v-45.888h-240.973v45.888h127.667c5.286 0 9.574 4.288 9.574 9.574s-4.288 9.574-9.574 9.574h-127.974c-10.381 0-18.829-8.448-18.829-18.829v-46.528c0-10.381 8.435-18.829 18.829-18.829h7.59v-20.134h-7.59c-10.381 0-18.829-8.448-18.829-18.829 0 0 0.115-48.768 0.307-49.856h-322.65v319.642h615.066v-319.642zM818.534 662.054h-614.362v68.941c0 12.672 10.304 22.976 22.989 22.976h568.384c12.672 0 22.989-10.304 22.989-22.989v-68.928zM254.912 736.384c-15.488 0-28.096-12.595-28.096-28.096 0-15.488 12.595-28.096 28.096-28.096 15.488 0 28.096 12.608 28.096 28.096s-12.608 28.096-28.096 28.096v0zM254.912 699.341c-4.928 0-8.947 4.006-8.947 8.947 0 4.928 4.019 8.947 8.947 8.947 4.941 0 8.947-4.019 8.947-8.947s-4.006-8.947-8.947-8.947v0zM326.438 736.384c-15.488 0-28.096-12.595-28.096-28.096 0-15.488 12.608-28.096 28.096-28.096s28.096 12.608 28.096 28.096c0 15.488-12.608 28.096-28.096 28.096v0zM326.438 699.341c-4.928 0-8.947 4.006-8.947 8.947 0 4.928 4.006 8.947 8.947 8.947s8.947-4.019 8.947-8.947c0-4.928-4.006-8.947-8.947-8.947v0zM397.965 736.384c-15.488 0-28.083-12.595-28.083-28.096 0-15.488 12.595-28.096 28.083-28.096s28.096 12.608 28.096 28.096c0 15.488-12.608 28.096-28.096 28.096v0zM397.965 699.341c-4.928 0-8.947 4.006-8.947 8.947 0 4.928 4.019 8.947 8.947 8.947 4.941 0 8.947-4.019 8.947-8.947s-4.006-8.947-8.947-8.947v0z" />
<glyph unicode="&#xe908;" glyph-name="email" d="M757.635 505.865c-0.050 0.564-0.16 1.12-0.334 1.66-0.11 0.485-0.27 0.955-0.466 1.409-0.229 0.445-0.504 0.865-0.819 1.256-0.315 0.46-0.681 0.884-1.091 1.27-0.129 0.115-0.184 0.27-0.325 0.385l-78.785 61.185v63.415c0 13.569-10.999 24.575-24.575 24.575h-88.774l-35.551 27.599c-8.78 6.851-21.094 6.851-29.875 0l-35.549-27.599h-88.78c-13.571 0-24.576-11-24.576-24.575v-63.415l-78.76-61.185c-0.134-0.115-0.195-0.27-0.325-0.385-0.41-0.385-0.774-0.81-1.089-1.27-0.315-0.39-0.59-0.81-0.82-1.256-0.195-0.454-0.355-0.924-0.465-1.409-0.17-0.53-0.285-1.080-0.335-1.64 0-0.17-0.1-0.32-0.1-0.49v-278.55c0.010-5.211 1.7-10.281 4.81-14.46 0.050-0.076 0.055-0.165 0.115-0.23 0.055-0.065 0.179-0.134 0.26-0.23 4.604-6.054 11.759-9.624 19.365-9.655h442.369c7.635 0.020 14.825 3.611 19.43 9.701 0.065 0.079 0.165 0.105 0.22 0.184 0.060 0.081 0.065 0.155 0.115 0.23 3.114 4.179 4.8 9.249 4.809 14.46v278.524c0 0.175-0.090 0.32-0.1 0.495v0zM507.060 675.695c2.86 2.269 6.909 2.269 9.774 0l18.895-14.675h-47.51l18.84 14.675zM292.855 218.65l214.205 166.39c2.865 2.271 6.909 2.271 9.774 0l214.26-166.39h-438.24zM741.35 231.425l-214.436 166.545c-8.78 6.84-21.089 6.84-29.875 0l-214.44-166.545v261.469l134.24-104.239c3.58-2.775 8.726-2.125 11.501 1.45 2.775 3.579 2.12 8.724-1.455 11.5l-136.38 105.9 57.629 44.786v-63.301c0-4.525 3.671-8.195 8.191-8.195 4.525 0 8.195 3.67 8.195 8.195v147.456c0 4.525 3.666 8.189 8.191 8.189h278.529c4.525 0 8.191-3.665 8.191-8.189v-147.456c0-4.525 3.665-8.195 8.189-8.195s8.195 3.67 8.195 8.195v63.301l57.631-44.786-136.62-106.090c-2.35-1.779-3.561-4.685-3.171-7.61s2.319-5.409 5.055-6.515c2.735-1.1 5.85-0.65 8.16 1.185l134.481 104.42v-261.469zM610.28 497.18v32.769c0 54.291-44.014 98.3-98.305 98.3s-98.304-44.009-98.304-98.3c0-54.295 44.014-98.304 98.304-98.304 4.526 0 8.191 3.665 8.191 8.189s-3.665 8.195-8.191 8.195c-45.244 0-81.92 36.676-81.92 81.92 0 45.24 36.676 81.916 81.92 81.916s81.92-36.676 81.92-81.916v-32.769c0-9.050-7.334-16.385-16.384-16.385s-16.385 7.336-16.385 16.385v32.769c0 4.521-3.665 8.191-8.191 8.191-4.525 0-8.189-3.67-8.189-8.191 0-18.099-14.675-32.769-32.771-32.769-18.094 0-32.769 14.67-32.769 32.769 0 18.095 14.675 32.765 32.769 32.765 4.526 0 8.191 3.665 8.191 8.191 0 4.525-3.665 8.195-8.191 8.195-21.999 0.050-41.349-14.525-47.379-35.685-6.030-21.155 2.735-43.74 21.455-55.295s42.834-9.266 59.044 5.61c1.786-17.326 16.841-30.205 34.236-29.285 17.39 0.919 31.004 15.319 30.949 32.735v0z" />
<glyph unicode="&#xe909;" glyph-name="medal" d="M593.818 401.101l-56.538 8.218-25.28 51.226-25.28-51.226-56.538-8.218 40.909-39.885-9.651-56.307 50.56 26.586 50.56-26.586-9.651 56.307 40.909 39.885zM523.789 358.298l-11.789 6.195-11.789-6.195 2.253 13.12-9.536 9.293 13.171 1.92 5.888 11.942 5.888-11.942 13.171-1.92-9.536-9.293 2.278-13.12zM266.24 576.307h46.387v-39.693l67.226-53.824c-24.538-29.67-39.296-67.686-39.296-109.107-0.013-94.528 76.902-171.443 171.443-171.443s171.443 76.915 171.443 171.456c0 41.408-14.758 79.437-39.296 109.107l67.226 53.824v39.693h46.387v117.44h-491.52v-117.453zM341.824 550.643v65.754h93.99v-89.088c-12.774-6.336-24.653-14.208-35.469-23.514l-58.522 46.848zM654.246 373.696c0-78.438-63.808-142.246-142.246-142.246s-142.246 63.821-142.246 142.246c0 78.438 63.821 142.246 142.246 142.246s142.246-63.821 142.246-142.246v0zM465.011 538.611v77.786h93.978v-77.786c-2.701 0.768-5.427 1.446-8.166 2.086-0.115 0.026-0.243 0.051-0.358 0.090-3.789 0.87-7.603 1.6-11.443 2.214-0.499 0.077-0.998 0.166-1.485 0.23-1.050 0.154-2.099 0.294-3.149 0.435-0.755 0.090-1.523 0.179-2.291 0.269-1.101 0.128-2.202 0.256-3.302 0.358-1.37 0.141-2.739 0.256-4.109 0.358-0.666 0.051-1.331 0.090-1.997 0.128-1.19 0.077-2.406 0.141-3.61 0.192-0.576 0.026-1.165 0.051-1.754 0.064-1.766 0.051-3.546 0.090-5.325 0.090-1.792 0-3.558-0.038-5.325-0.090-0.589-0.026-1.165-0.051-1.754-0.064-1.216-0.051-2.406-0.115-3.61-0.192-0.666-0.038-1.331-0.077-1.997-0.128-1.382-0.102-2.752-0.218-4.122-0.358-1.101-0.102-2.189-0.23-3.277-0.358-0.768-0.090-1.536-0.179-2.291-0.269-1.050-0.141-2.086-0.282-3.136-0.435-0.499-0.077-1.011-0.166-1.51-0.23-3.84-0.614-7.654-1.344-11.43-2.214-0.128-0.026-0.243-0.064-0.371-0.090-2.739-0.627-5.466-1.318-8.166-2.086v0zM682.176 576.307v-25.664l-58.509-46.848c-10.816 9.306-22.694 17.178-35.469 23.514v89.088h93.99v-40.090zM295.437 664.563h433.126v-59.046h-17.19v40.090h-398.746v-40.090h-17.19v59.046zM512 501.338c-70.387 0-127.654-57.254-127.654-127.642s57.267-127.654 127.654-127.654 127.642 57.267 127.642 127.654c0 70.374-57.254 127.642-127.642 127.642v0zM512 275.238c-54.285 0-98.445 44.16-98.445 98.445s44.16 98.445 98.445 98.445 98.445-44.16 98.445-98.445c0-54.272-44.16-98.445-98.445-98.445v0z" />
<glyph unicode="&#xe90a;" glyph-name="motion-graphics" d="M704 647.68h-30.72v-15.36h23.040v-30.72h15.36v38.4c0 4.239-3.441 7.68-7.68 7.68v0zM696.32 401.92h-30.72v-15.36h38.4c4.239 0 7.68 3.441 7.68 7.68v23.040h-15.36v-15.36zM634.88 401.92h15.36v-15.36h-15.36v15.36zM327.68 632.32h30.72v15.36h-38.4c-4.239 0-7.68-3.441-7.68-7.68v-46.080h15.36v38.4zM312.32 578.56h15.36v-15.36h-15.36v15.36zM719.36 678.4h-414.72c-12.724 0-23.040-10.316-23.040-23.040v-337.92c0-12.724 10.316-23.040 23.040-23.040h154.615l-20.485-30.72h-65.010c-4.239 0-7.68-3.441-7.68-7.68v-30.72c0-4.239 3.441-7.68 7.68-7.68h276.48c4.239 0 7.68 3.441 7.68 7.68v30.72c0 4.239-3.441 7.68-7.68 7.68h-65.010l-20.485 30.72h154.615c12.724 0 23.040 10.316 23.040 23.040v337.92c0 12.724-10.316 23.040-23.040 23.040v0zM642.56 232.96h-261.12v15.36h261.12v-15.36zM566.765 263.68h-109.53l20.475 30.72h68.58l20.475-30.72zM727.040 317.44c0-4.239-3.441-7.68-7.68-7.68h-414.72c-4.239 0-7.68 3.441-7.68 7.68v38.4h430.080v-38.4zM296.96 371.2v284.16c0 4.239 3.441 7.68 7.68 7.68h414.72c4.239 0 7.68-3.441 7.68-7.68v-284.16h-430.080zM535.040 332.8c0 9.32-5.615 17.72-14.225 21.285-8.605 3.565-18.515 1.595-25.106-4.995-6.589-6.591-8.559-16.5-4.995-25.106 3.565-8.609 11.965-14.225 21.285-14.225 12.724 0 23.040 10.316 23.040 23.040v0zM512 325.12c-3.105 0-5.905 1.87-7.095 4.74s-0.53 6.175 1.665 8.37 5.5 2.856 8.37 1.665 4.74-3.99 4.74-7.095c0-4.239-3.441-7.68-7.68-7.68v0zM411.13 459.52l-13.299-7.68c23.735-40.52 67.209-65.375 114.17-65.28v15.36c-41.475-0.11-79.885 21.825-100.87 57.6v0zM512 632.32c30.555 0.015 59.866-12.12 81.475-33.725 21.605-21.609 33.741-50.92 33.725-81.475h15.36c0.010 34.63-13.74 67.845-38.225 92.335-24.49 24.485-57.705 38.235-92.335 38.225-42.74 0.005-82.63-21.45-106.185-57.115l12.69-8.65c20.724 31.436 55.845 50.365 93.495 50.405v0zM512 617.435c-55.116-0.060-99.78-44.724-99.84-99.84h15.36c0 35.135 21.745 66.605 54.61 79.025 32.865 12.425 69.99 3.205 93.23-23.145l11.52 10.171c-18.964 21.475-46.23 33.779-74.88 33.789v0zM586.88 450.595l-11.52 10.171c-25.094-27.15-64.535-35.611-98.555-21.146l-6.41-13.96c40.186-17.29 86.906-7.286 116.485 24.934v0zM442.88 517.12c0-38.175 30.945-69.12 69.12-69.12s69.12 30.945 69.12 69.12c0.215 12.090-2.79 24.015-8.71 34.56l-13.299-7.68c4.559-8.21 6.854-17.49 6.65-26.88 0-29.69-24.070-53.76-53.76-53.76s-53.76 24.070-53.76 53.76h-15.36zM512 547.84c0 9.32-5.615 17.72-14.225 21.285-8.605 3.565-18.515 1.595-25.106-4.995-6.589-6.591-8.559-16.5-4.995-25.106 3.565-8.609 11.965-14.225 21.285-14.225 12.724 0 23.040 10.316 23.040 23.040v0zM481.28 547.84c0 3.105 1.87 5.905 4.74 7.095s6.175 0.53 8.37-1.665c2.195-2.195 2.856-5.5 1.665-8.37s-3.99-4.74-7.095-4.74c-4.239 0-7.68 3.441-7.68 7.68v0zM396.8 494.080c0 9.32-5.615 17.72-14.225 21.285-8.605 3.565-18.515 1.595-25.106-4.995-6.589-6.591-8.559-16.5-4.995-25.106 3.565-8.609 11.965-14.225 21.285-14.225 12.724 0 23.040 10.316 23.040 23.040v0zM373.76 486.4c-3.105 0-5.905 1.87-7.095 4.74s-0.53 6.175 1.665 8.37c2.195 2.195 5.5 2.856 8.37 1.665s4.74-3.99 4.74-7.095c0-4.239-3.441-7.68-7.68-7.68v0zM596.48 432.64c-9.32 0-17.72-5.615-21.285-14.225-3.565-8.605-1.595-18.515 4.995-25.106 6.591-6.589 16.5-8.559 25.106-4.995 8.609 3.565 14.225 11.965 14.225 21.285 0 12.724-10.316 23.040-23.040 23.040v0zM596.48 401.92c-3.105 0-5.905 1.87-7.095 4.74s-0.53 6.175 1.665 8.37c2.195 2.195 5.5 2.856 8.37 1.665s4.74-3.99 4.74-7.095c0-4.239-3.441-7.68-7.68-7.68v0zM412.16 501.76h15.36v-15.36h-15.36v15.36zM350.72 570.88v-15.36h15.36v-15.36h15.36v15.36h15.36v15.36h-15.36v15.36h-15.36v-15.36h-15.36zM642.56 471.040v15.36h-15.36v15.36h-15.36v-15.36h-15.36v-15.36h15.36v-15.36h15.36v15.36h15.36zM312.32 401.92h92.16v-15.36h-92.16v15.36zM312.32 432.64h30.72v-15.36h-30.72v15.36zM358.4 432.64h30.72v-15.36h-30.72v15.36zM312.32 463.36h38.4v-15.36h-38.4v15.36zM650.24 586.24h61.44v-15.36h-61.44v15.36zM688.64 555.52h23.040v-15.36h-23.040v15.36zM657.92 555.52h15.36v-15.36h-15.36v15.36zM665.6 524.8h46.080v-15.36h-46.080v15.36zM657.92 494.080h53.76v-15.36h-53.76v15.36z" />
<glyph unicode="&#xe90b;" glyph-name="responsive" d="M714.56 577.28h-14.4v14.4c0 23.82-19.38 43.2-43.2 43.2h-318.72c-23.82 0-43.2-19.38-43.2-43.2v-244.8h-14.4c-7.955 0-14.4-6.445-14.4-14.4v-28.8c0-23.82 19.38-43.2 43.2-43.2h405.12c23.82 0 43.2 19.38 43.2 43.2v230.4c0 23.82-19.38 43.2-43.2 43.2v0zM323.84 591.68c0 7.94 6.46 14.4 14.4 14.4h318.72c7.94 0 14.4-6.46 14.4-14.4v-14.4h-72c-23.82 0-43.2-19.38-43.2-43.2v-187.2h-232.32v244.8zM295.040 303.68v14.4h261.12v-14.4c0-5.050 0.881-9.894 2.476-14.4h-249.196c-7.94 0-14.4 6.46-14.4 14.4v0zM728.96 303.68c0-7.94-6.46-14.4-14.4-14.4h-115.2c-7.94 0-14.4 6.46-14.4 14.4v230.4c0 7.94 6.46 14.4 14.4 14.4h115.2c7.94 0 14.4-6.46 14.4-14.4v-230.4zM671.36 346.88h-28.8c-7.955 0-14.4-6.445-14.4-14.4s6.445-14.4 14.4-14.4h28.8c7.955 0 14.4 6.445 14.4 14.4s-6.445 14.4-14.4 14.4v0zM671.36 505.28c0-7.955-6.445-14.4-14.4-14.4s-14.4 6.445-14.4 14.4 6.445 14.4 14.4 14.4c7.955 0 14.4-6.445 14.4-14.4v0z" />
<glyph unicode="&#xe90c;" glyph-name="twitter" d="M1024 733.504c-38.080-16.704-78.656-27.776-120.96-33.152 43.52 25.984 76.736 66.816 92.352 116.032-40.576-24.192-85.376-41.28-133.12-50.816-38.528 41.024-93.44 66.432-153.344 66.432-116.224 0-209.792-94.336-209.792-209.984 0-16.64 1.408-32.64 4.864-47.872-174.528 8.512-328.96 92.16-432.704 219.584-18.112-31.424-28.736-67.392-28.736-106.112 0-72.704 37.44-137.152 93.248-174.464-33.728 0.64-66.816 10.432-94.848 25.856 0-0.64 0-1.472 0-2.304 0-102.016 72.768-186.752 168.192-206.272-17.088-4.672-35.712-6.912-55.040-6.912-13.44 0-27.008 0.768-39.744 3.584 27.2-83.136 104.384-144.256 196.16-146.24-71.424-55.872-162.112-89.536-260.288-89.536-17.216 0-33.728 0.768-50.24 2.88 92.992-59.968 203.2-94.208 322.048-94.208 386.304 0 597.504 320 597.504 597.376 0 9.28-0.32 18.24-0.768 27.136 41.664 29.568 76.672 66.496 105.216 108.992z" />
<glyph unicode="&#xe90d;" glyph-name="user-experience" d="M795.48 447.281c13.76 27.434 24.595 55.014 32.115 82.194 23.579 85.151 12.164 156.461-32.155 200.771-44.316 44.315-115.621 55.735-200.776 32.16-27.174-7.52-54.755-18.36-82.19-32.12-34.135 17.135-68.32 29.67-101.254 36.89-76.5 16.765-140.98 3.651-181.555-36.929-26.045-26.045-41.151-62.636-43.675-105.825-2.271-38.854 5.605-83.444 22.765-129.375-14.090-11.14-23.16-28.37-23.16-47.685 0-19.32 9.070-36.545 23.16-47.685-17.16-45.93-25.036-90.525-22.765-129.375 2.529-43.19 17.629-79.785 43.675-105.825 29.084-29.089 69.889-44.084 119.18-44.084 9.896 0 20.136 0.604 30.696 1.82 42.259 4.874 87.415 19.274 133 42.194 27.415-13.75 54.975-24.575 82.125-32.090 28.98-8.024 56.355-11.995 81.61-11.995 48.95 0 89.93 14.92 119.165 44.155 40.58 40.575 53.695 105.050 36.924 181.56-7.219 32.929-19.754 67.11-36.884 101.245v0zM599.785 743.905c78.205 21.65 142.87 11.98 182.080-27.231 39.215-39.214 48.884-103.88 27.235-182.080-6.065-21.91-14.395-44.114-24.754-66.3-18.565 33.29-41.395 66.276-67.845 97.741 8.105 10.324 12.955 23.325 12.955 37.445 0 13.65-4.42 26.54-12.781 37.29l-15.15-11.781c5.715-7.35 8.736-16.174 8.736-25.509 0-22.935-18.661-41.59-41.591-41.59s-41.585 18.655-41.585 41.59 18.655 41.59 41.585 41.59c7.491 0 14.83-2.010 21.221-5.81l9.81 16.495c-9.361 5.564-20.091 8.509-31.031 8.509-14.115 0-27.114-4.855-37.44-12.96-31.47 26.455-64.454 49.285-97.745 67.855 22.19 10.355 44.396 18.68 66.3 24.745v0zM243.24 716.675c51.895 51.89 147.045 49.956 248.301 2.541-49.431-27.57-97.911-64.48-142.14-108.705-32.795-32.795-61.66-68.020-85.906-104.795-5.464 1.585-11.214 2.429-17.11 2.429-7.265 0-14.225-1.285-20.685-3.625-33.254 90.636-27.030 167.59 17.54 212.155v0zM349.34 139.651c-43.42 0-80.33 12.625-106.106 38.395-44.564 44.564-50.794 121.514-17.535 212.155 6.46-2.345 13.42-3.625 20.685-3.625 5.93 0 11.661 0.869 17.091 2.465 24.244-36.791 53.12-72.026 85.925-104.831 44.215-44.21 92.68-81.115 142.094-108.68-50.755-23.75-99.584-35.885-142.154-35.88v0zM512.5 185.975c-51.845 27.235-103.040 65.33-149.526 111.805-31.235 31.24-58.785 64.714-82.015 99.625 15.82 10.985 26.205 29.275 26.205 49.949 0 1.8-0.076 3.625-0.236 5.416l-19.124-1.696c0.11-1.225 0.165-2.474 0.165-3.715 0-22.935-18.656-41.59-41.586-41.59s-41.59 18.655-41.59 41.59 18.66 41.59 41.59 41.59c15.835 0 30.095-8.805 37.201-22.97l17.155 8.6c-4.69 9.359-11.525 17.11-19.74 22.799 23.226 34.885 50.761 68.346 81.975 99.555 46.495 46.496 97.71 84.6 149.571 111.836 35.295-18.58 71.004-42.536 105.6-71.54-6.476-9.665-10.26-21.27-10.26-33.75 0-33.516 27.276-60.781 60.785-60.781 12.485 0 24.091 3.781 33.751 10.26 29.010-34.6 52.96-70.316 71.534-105.605-27.229-51.86-65.335-103.075-111.825-149.574-5.115-5.111-10.369-10.19-15.68-15.165-10.595 8.965-24.27 14.385-39.205 14.385-13.645 0-26.54-4.425-37.29-12.78l11.785-15.15c7.351 5.71 16.17 8.73 25.505 8.735 22.935 0 41.59-18.655 41.59-41.585 0-22.94-18.655-41.59-41.59-41.59-22.93 0-41.585 18.65-41.585 41.59 0 7.485 2.004 14.82 5.805 21.21l-16.495 9.815c-5.564-9.359-8.509-20.090-8.509-31.025 0-9.635 2.26-18.735 6.264-26.835-13.449-8.585-26.885-16.39-40.224-23.41v0zM781.865 178.045c-39.21-39.215-103.875-48.886-182.080-27.236-21.891 6.066-44.076 14.381-66.25 24.731 10.111 5.65 20.225 11.715 30.31 18.17 11.045-11.265 26.415-18.28 43.4-18.28 33.516 0 60.79 27.269 60.79 60.785 0 11.67-3.315 22.575-9.039 31.845 5.66 5.295 11.26 10.705 16.705 16.15 44.224 44.23 81.134 92.71 108.704 142.14 47.42-101.256 49.356-196.41-2.54-248.305v0zM669.949 348.186h-19.83v48.36c0 21.385-14.38 40.38-34.964 46.19l-7.176 2.020-5.21-18.476 7.176-2.025c12.349-3.484 20.974-14.875 20.974-27.709v-48.36h-34.55v26.23h-19.195v-26.23h-86.38v-19.196h179.154v19.196zM544.294 442.775l40-11.29 5.216 18.479-39.205 11.060v25.49c17.75 12.105 29.43 32.48 29.43 55.539v28.156c0 37.039-30.135 67.185-67.18 67.185s-67.186-30.145-67.186-67.185v-28.156c0-23.059 11.68-43.434 29.431-55.539v-25.49l-64.851-18.29c-20.585-5.81-34.964-24.805-34.964-46.19v-48.36h-19.83v-19.196h116.449v19.196h-23.675v26.23h-19.195v-26.23h-34.55v48.36c0 12.835 8.625 24.225 20.975 27.709l65.65 18.515c8.084-8.845 19.5-13.97 31.745-13.97 12.239 0 23.66 5.13 31.739 13.975v0zM512.556 618.195c26.455 0 47.985-21.526 47.985-47.99v-10.691l-20.175 26.691h-73.050c6.605 18.615 24.385 31.99 45.24 31.99v0zM464.564 542.054v24.951h66.245l28.136-37.206c-5.43-20.545-24.17-35.73-46.39-35.73-26.46 0-47.991 21.526-47.991 47.985v0zM494.001 456.855v20.645c5.889-1.7 12.114-2.63 18.555-2.63 6.435 0 12.654 0.931 18.55 2.63v-20.645c-4.511-5.585-11.265-8.855-18.55-8.855-7.291 0-14.051 3.27-18.555 8.855v0zM563.245 397.54l-27.040 7.625 5.215 18.476 27.035-7.625-5.21-18.476zM605.38 405.629l-5.215-18.474-18.476 5.21 5.216 18.476 18.474-5.211zM659.075 613.075h19.195v-19.195h-19.195v19.195zM597.65 245.81h19.195v-19.195h-19.195v19.195zM236.78 456.955h19.2v-19.19h-19.2v19.19z" />
<glyph unicode="&#xe90e;" glyph-name="linkedin" d="M757.635 202.24v0.020h0.125v180.265c0 88.184-18.985 156.119-122.080 156.119-49.565 0-82.82-27.2-96.401-52.979h-1.435v44.745h-97.75v-328.15h101.786v162.49c0 42.78 8.11 84.15 61.089 84.15 52.205 0 52.986-48.824 52.986-86.895v-159.764h101.679zM274.35 530.39h101.91v-328.15h-101.91v328.15zM325.265 693.76c-32.585 0-59.025-26.44-59.025-59.025 0-32.58 26.44-59.575 59.025-59.575 32.58 0 59.021 26.995 59.021 59.575-0.020 32.585-26.46 59.025-59.021 59.025v0z" />
<glyph unicode="&#xe90f;" glyph-name="mockup" d="M696.325 160.040h-368.616c-11.305 0-20.475 9.17-20.475 20.48v61.435h-20.48v-61.435c0-22.62 18.34-40.96 40.955-40.96h368.616c17.359 0 32.829 10.945 38.615 27.31l-19.29 6.82c-2.911-8.175-10.646-13.64-19.325-13.65v0zM737.285 538.894v102.391c0 0.215-0.11 0.41-0.12 0.635-0.060 0.905-0.239 1.795-0.535 2.65-0.11 0.33-0.195 0.635-0.335 0.955-0.499 1.115-1.194 2.13-2.049 3l-102.395 102.395c-0.87 0.855-1.885 1.55-3 2.045-0.31 0.129-0.63 0.244-0.955 0.339-0.86 0.296-1.755 0.475-2.66 0.535-0.165-0.035-0.36 0.081-0.585 0.081h-296.941c-22.615 0-40.955-18.34-40.955-40.96v-40.955h20.48v40.955c0 11.31 9.17 20.48 20.475 20.48h286.706v-61.435c0-22.62 18.335-40.955 40.955-40.955h61.435v-92.156h20.48zM655.37 651.525c-11.31 0-20.48 9.17-20.48 20.48v46.954l67.444-67.434h-46.964zM337.96 712.96h20.48v-20.475h-20.48v20.475zM378.92 712.96h20.475v-20.475h-20.475v20.475zM419.875 712.96h20.48v-20.475h-20.48v20.475zM573.455 436.499v204.786c0 5.655-4.585 10.24-10.24 10.24h-286.701c-0.205 0-0.38-0.105-0.57-0.115-0.934-0.055-1.86-0.241-2.744-0.54-0.311-0.115-0.616-0.195-0.915-0.33-1.115-0.495-2.135-1.19-3.011-2.045l-61.435-61.435c-0.855-0.869-1.55-1.889-2.045-2.999-0.145-0.311-0.224-0.635-0.339-0.955-0.296-0.855-0.475-1.751-0.53-2.651 0-0.225-0.125-0.42-0.125-0.635v-143.32c0-5.655 4.585-10.24 10.24-10.24h348.175c5.655 0 10.24 4.585 10.24 10.24v0zM266.275 616.57v-26.479h-26.474l26.474 26.479zM552.975 446.739h-327.656v36.046l91.766 73.394 95.93-86.33c3.825-3.436 9.6-3.505 13.505-0.165l65.020 55.725 61.435-52.659v-26.011zM552.975 499.704l-54.78 46.961c-3.83 3.279-9.48 3.279-13.311 0l-64.855-55.58-95.709 86.135c-3.725 3.355-9.33 3.52-13.245 0.385l-85.755-68.6v60.605h51.195c5.655 0 10.24 4.585 10.24 10.24v51.2h266.221v-131.346zM419.866 549.134c16.964 0 30.72 13.751 30.72 30.716s-13.756 30.72-30.72 30.72c-16.965 0-30.716-13.756-30.716-30.72s13.751-30.716 30.716-30.716v0zM419.866 590.090c5.655 0 10.24-4.585 10.24-10.24s-4.585-10.24-10.24-10.24-10.24 4.585-10.24 10.24 4.585 10.24 10.24 10.24v0zM259.965 485.435l51.209 40.979 12.8-16.004-51.204-40.975-12.805 16zM463.83 474.46l20.47 20.475 14.481-14.481-20.475-20.475-14.476 14.481zM778.24 354.584h-225.265c-5.655 0-10.24-4.585-10.24-10.24v-143.35c0-5.655 4.585-10.24 10.24-10.24h225.265c5.655 0 10.24 4.585 10.24 10.24v143.35c0 5.655-4.585 10.24-10.24 10.24v0zM768 211.235h-204.785v122.875h204.785v-122.875zM617.411 244.955l14.479 14.474-13.24 13.24 13.24 13.24-14.479 14.479-20.476-20.48c-3.995-4-3.995-10.479 0-14.479l20.476-20.475zM713.805 244.955l20.48 20.475c4 4 4 10.479 0 14.479l-20.48 20.48-14.479-14.479 13.239-13.24-13.239-13.24 14.479-14.474zM645.45 234.195l20.46 81.92 19.86-4.96-20.461-81.92-19.859 4.96zM522.26 272.669v122.875c0 5.655-4.585 10.24-10.24 10.24h-255.986c-5.655 0-10.24-4.585-10.24-10.24v-122.875c0-5.655 4.585-10.24 10.24-10.24h255.986c5.655 0 10.24 4.585 10.24 10.24v0zM501.78 282.909h-235.506v102.395h235.506v-102.395zM286.755 364.824h20.48v-20.48h-20.48v20.48zM327.709 364.824h153.59v-20.48h-153.59v20.48zM286.755 323.869h20.48v-20.48h-20.48v20.48zM327.709 323.869h153.59v-20.48h-153.59v20.48zM808.96 518.414h-204.785c-5.655 0-10.24-4.585-10.24-10.24v-122.87c0-5.655 4.585-10.24 10.24-10.24h204.785c5.655 0 10.24 4.585 10.24 10.24v122.87c0 5.655-4.585 10.24-10.24 10.24v0zM798.72 395.544h-184.305v102.39h184.305v-102.39zM634.89 477.459h40.96v-20.48h-40.96v20.48zM696.325 477.459h81.915v-20.48h-81.915v20.48zM634.89 436.499h143.35v-20.48h-143.35v20.48z" />
<glyph unicode="&#xe910;" glyph-name="smartphone" d="M552.705 669.185h-81.92c-4.52 0-8.189-3.67-8.189-8.196 0-4.52 3.67-8.189 8.189-8.189h81.92c4.52 0 8.189 3.67 8.189 8.189 0 4.526-3.67 8.196-8.189 8.196v0zM610.051 669.185h-8.196c-4.52 0-8.189-3.67-8.189-8.196 0-4.52 3.67-8.189 8.189-8.189h8.196c4.52 0 8.189 3.67 8.189 8.189 0 4.526-3.67 8.196-8.189 8.196v0zM521.92 275.971h-20.339c-12.461 0-22.606-10.145-22.606-22.606v-3.954c0-12.461 10.145-22.596 22.596-22.596h20.339c12.461 0 22.606 10.135 22.606 22.596v3.954c0 12.461-10.145 22.606-22.596 22.606v0zM528.131 249.411c0-3.425-2.785-6.211-6.211-6.211h-20.339c-3.436 0-6.221 2.785-6.221 6.211v3.954c0 3.436 2.785 6.221 6.221 6.221h20.329c3.436 0 6.221-2.785 6.221-6.221v-3.954zM621.405 693.76h-219.31c-16.325 0-29.615-13.285-29.615-29.615v-432.289c0-16.33 13.29-29.615 29.615-29.615h219.3c16.325 0 29.615 13.285 29.615 29.605v432.3c0 16.33-13.29 29.615-29.605 29.615v0zM634.625 231.855c0-7.291-5.93-13.23-13.22-13.23h-219.31c-7.3 0-13.23 5.939-13.23 13.22v432.3c0 7.291 5.93 13.23 13.23 13.23h219.3c7.3 0 13.23-5.939 13.23-13.23v-432.289zM642.815 644.611h-262.139c-4.526 0-8.196-3.671-8.196-8.196v-344.065c0-4.52 3.67-8.189 8.196-8.189h262.144c4.521 0 8.191 3.67 8.191 8.189v344.065c0 4.525-3.67 8.196-8.196 8.196v0zM634.625 300.545h-245.76v327.68h245.76v-327.68z" />
<glyph unicode="&#xe911;" glyph-name="ui1" d="M675.84 284.16h-20.48v-40.96h-184.32v-20.48h184.32v-30.72c0-16.965-13.755-30.72-30.72-30.72h-225.28c-10.975 0.015-21.115 5.865-26.625 15.36l-17.734-10.24c9.18-15.814 26.075-25.565 44.36-25.6h225.28c28.265 0.035 51.165 22.935 51.2 51.2v92.16zM501.76 202.24h20.48v-20.48h-20.48v20.48zM563.2 478.72v20.48h-31.24c-5.106 65.345-57.015 117.254-122.36 122.36v31.24h-20.48v-31.24c-6.9-0.53-13.745-1.6-20.48-3.195v54.915h163.84v20.48h-163.84v10.24c0 16.965 13.755 30.72 30.72 30.72h225.28c7.48 0 14.705-2.73 20.315-7.68l13.55 15.36c-9.35 8.255-21.395 12.805-33.865 12.8h-225.28c-28.265-0.035-51.165-22.935-51.2-51.2v-92.16c-46.109-19.315-77.535-62.799-81.4-112.64h-31.24v-20.48h31.265c4.829-65.469 56.865-117.54 122.335-122.41v-31.19h20.48v31.19c65.469 4.87 117.505 56.941 122.335 122.41h31.265zM389.12 396.8v-20.010c-14.285 1.285-28.186 5.3-40.96 11.821v18.429c0 28.275 22.925 51.2 51.2 51.2s51.2-22.925 51.2-51.2v-18.429c-12.771-6.531-26.675-10.551-40.96-11.85v20.040h-20.48zM368.64 509.44c0 16.965 13.755 30.72 30.72 30.72s30.72-13.755 30.72-30.72-13.755-30.72-30.72-30.72-30.72 13.755-30.72 30.72v0zM474.45 404.989c-1.105-1.019-2.285-1.839-3.41-2.784v4.835c-0.026 26.749-14.945 51.26-38.694 63.57 16.449 13.855 22.484 36.515 15.109 56.716-7.375 20.205-26.589 33.645-48.095 33.645s-40.719-13.44-48.095-33.645c-7.375-20.201-1.34-42.861 15.109-56.716-23.749-12.31-38.669-36.82-38.694-63.57v-4.884c-1.135 0.929-2.316 1.805-3.41 2.784-21.22 19.031-34.445 45.39-37.005 73.78h19.935v20.48h-19.96c5.005 54.060 47.821 96.876 101.88 101.88v-19.96h20.48v19.96c54.060-5.005 96.876-47.821 101.88-101.88h-19.96v-20.48h19.935c-2.56-28.39-15.785-54.749-37.005-73.78v0.050zM788.48 570.88c5.655 0 10.24 4.585 10.24 10.24v122.88c0 5.655-4.585 10.24-10.24 10.24h-225.28c-5.655 0-10.24-4.585-10.24-10.24v-122.88c0-5.655 4.585-10.24 10.24-10.24h225.28zM573.44 693.76h204.8v-102.4h-204.8v102.4zM593.92 673.28h40.96v-20.48h-40.96v20.48zM655.36 673.28h102.4v-20.48h-102.4v20.48zM593.92 632.32h163.84v-20.48h-163.84v20.48zM786.67 550.4c-7.93-0.015-15.58-2.925-21.505-8.189l-89.325-78.751v86.94h-20.48v-102.4h2.959l-58.254-51.405c-37.901-2.17-67.54-33.51-67.585-71.475v-18.065c0.040-10.161-5.705-19.465-14.815-23.971-4.255-2.12-6.491-6.89-5.4-11.515s5.22-7.895 9.975-7.89h71.68c37.965 0.045 69.306 29.684 71.475 67.585l145.674 165.089c8.456 9.591 10.51 23.246 5.245 34.9-5.26 11.654-16.86 19.145-29.645 19.145v0zM593.92 284.16h-46.83c3.866 7.011 5.885 14.89 5.87 22.895v18.065c0.035 26.675 20.515 48.87 47.105 51.035l44.89-44.89c-2.159-26.591-24.36-47.076-51.035-47.105v0zM795.709 509.9l-140.809-159.589-35.79 35.78 159.589 140.819c4.776 4.191 11.981 3.955 16.475-0.535 4.49-4.494 4.726-11.699 0.535-16.475v0zM215.040 192h225.28c5.655 0 10.24 4.585 10.24 10.24v81.92c0 5.655-4.585 10.24-10.24 10.24h-71.68v51.2h-20.48v-51.2h-133.12c-5.655 0-10.24-4.585-10.24-10.24v-81.92c0-5.655 4.585-10.24 10.24-10.24v0zM225.28 273.92h204.8v-61.44h-204.8v61.44zM245.76 253.44h51.2v-20.48h-51.2v20.48zM317.44 253.44h92.16v-20.48h-92.16v20.48zM215.040 611.84h102.4c5.655 0 10.24 4.585 10.24 10.24v81.92c0 5.655-4.585 10.24-10.24 10.24h-102.4c-5.655 0-10.24-4.585-10.24-10.24v-81.92c0-5.655 4.585-10.24 10.24-10.24v0zM225.28 693.76h81.92v-61.44h-81.92v61.44zM245.76 673.28h40.96v-20.48h-40.96v20.48z" />
<glyph unicode="&#xe912;" glyph-name="3d" d="M604.16 348.645c-5.306 0-9.6-4.3-9.6-9.6s4.294-9.6 9.6-9.6c5.3 0 9.6 4.3 9.6 9.6s-4.3 9.6-9.6 9.6v0zM521.6 517.6c0 5.306-4.3 9.6-9.6 9.6s-9.6-4.294-9.6-9.6c0-5.3 4.3-9.6 9.6-9.6s9.6 4.3 9.6 9.6v0zM419.84 329.445c5.3 0 9.6 4.3 9.6 9.6s-4.3 9.6-9.6 9.6-9.6-4.3-9.6-9.6 4.3-9.6 9.6-9.6v0zM752.055 283.825l-51.9 23.060v210.715c0 3.805-2.275 7.325-5.894 8.86l-172.66 74.264v70.476c0 5.306-4.3 9.6-9.6 9.6-5.306 0-9.6-4.294-9.6-9.6v-70.476l-172.66-74.264c-3.434-1.425-5.894-4.9-5.894-8.86v-210.715l-51.9-23.060c-4.845-2.154-7.030-7.825-4.876-12.669 2.135-4.815 7.79-7.045 12.671-4.876l53.765 23.885 174.705-75.14c2.31-0.989 5.135-1.050 7.585 0l174.7 75.14 53.765-23.885c4.895-2.175 10.541 0.076 12.671 4.876 2.154 4.845-0.031 10.515-4.876 12.669v0zM502.4 579.82v-23.82c0-5.3 4.294-9.6 9.6-9.6 5.3 0 9.6 4.3 9.6 9.6v23.82l144.66-62.22-154.26-66.35-154.26 66.35 144.66 62.22zM393.524 327.345c-2.154 4.845-7.83 7.021-12.669 4.876l-37.815-16.805v187.61l159.36-68.544v-196.055l-144.995 62.359 31.245 13.885c4.845 2.156 7.030 7.83 4.874 12.675v0zM521.6 238.426v196.055l159.355 68.544v-187.61l-37.81 16.8c-4.85 2.15-10.52-0.026-12.669-4.876-2.156-4.845 0.029-10.514 4.874-12.669l31.245-13.885-144.995-62.359z" />
<glyph unicode="&#xe913;" glyph-name="instagram" d="M518.45 120.32c-2.17 0-4.34 0-6.525 0.010-51.369-0.125-98.834 1.18-144.995 3.99-42.319 2.575-80.95 17.199-111.72 42.29-29.69 24.21-49.965 56.945-60.26 97.285-8.96 35.119-9.435 69.595-9.891 102.94-0.33 23.924-0.669 52.275-0.74 81.105 0.070 28.95 0.41 57.3 0.74 81.225 0.456 33.34 0.931 67.816 9.891 102.94 10.295 40.34 30.57 73.075 60.26 97.285 30.77 25.091 69.4 39.715 111.725 42.29 46.159 2.804 93.635 4.115 145.115 3.99 51.386 0.11 98.835-1.185 144.995-3.99 42.321-2.575 80.951-17.199 111.721-42.29 29.695-24.21 49.965-56.945 60.26-97.285 8.96-35.119 9.435-69.6 9.889-102.94 0.33-23.924 0.676-52.275 0.74-81.105v-0.12c-0.064-28.829-0.41-57.18-0.74-81.105-0.454-33.34-0.924-67.816-9.889-102.94-10.295-40.34-30.565-73.075-60.26-97.285-30.77-25.091-69.4-39.715-111.721-42.29-44.205-2.691-89.614-4-138.595-4v0zM511.924 171.53c50.536-0.12 96.936 1.155 142.011 3.895 32 1.944 59.744 12.33 82.474 30.865 21.010 17.135 35.48 40.776 43.005 70.266 7.46 29.234 7.89 60.625 8.305 90.98 0.325 23.764 0.666 51.914 0.735 80.465-0.069 28.556-0.41 56.7-0.735 80.465-0.415 30.355-0.845 61.746-8.305 90.985-7.525 29.49-21.996 53.13-43.005 70.266-22.73 18.529-50.474 28.915-82.474 30.86-45.075 2.746-91.475 4.010-141.891 3.9-50.525 0.12-96.929-1.155-142.004-3.9-32-1.944-59.745-12.33-82.476-30.86-21.010-17.135-35.48-40.776-43.005-70.266-7.46-29.239-7.89-60.625-8.305-90.985-0.325-23.785-0.664-51.95-0.735-80.525 0.070-28.449 0.41-56.62 0.735-80.404 0.415-30.355 0.845-61.746 8.305-90.98 7.525-29.49 21.996-53.13 43.005-70.266 22.73-18.529 50.476-28.915 82.476-30.86 45.075-2.746 91.489-4.026 141.884-3.9v0zM510.705 288c-88.22 0-160 71.775-160 160s71.78 160 160 160c88.225 0 160-71.775 160-160s-71.775-160-160-160v0zM510.705 556.8c-59.99 0-108.8-48.81-108.8-108.8s48.81-108.8 108.8-108.8c59.995 0 108.8 48.81 108.8 108.8s-48.805 108.8-108.8 108.8v0zM688.625 659.2c-21.204 0-38.4-17.19-38.4-38.4s17.196-38.4 38.4-38.4c21.211 0 38.4 17.19 38.4 38.4s-17.189 38.4-38.4 38.4v0z" />
<glyph unicode="&#xe914;" glyph-name="laptop" d="M256 192h20.48v-20.48h-20.48v20.48zM296.96 192h20.48v-20.48h-20.48v20.48zM337.92 192h20.48v-20.48h-20.48v20.48zM686.080 192h81.92v-20.48h-81.92v20.48zM808.96 232.96v337.92c0 28.23-22.97 51.2-51.2 51.2h-30.72c0 79.055-64.305 143.36-143.36 143.36s-143.36-64.305-143.36-143.36h-174.080c-28.23 0-51.2-22.97-51.2-51.2v-337.92h-20.48v-51.2c0-28.23 22.97-51.2 51.2-51.2h532.48c28.23 0 51.2 22.97 51.2 51.2v51.2h-20.48zM757.76 601.6c16.934 0 30.72-13.786 30.72-30.72v-337.92h-20.48v327.68c0 11.295-9.185 20.48-20.48 20.48h-26.52c1.975 6.636 3.401 13.485 4.401 20.48h32.36zM466.749 659.709l108.686-45.289 37.215-111.625c-9.311-2.266-18.975-3.596-28.97-3.596-67.761 0-122.88 55.119-122.88 122.88 0 13.13 2.12 25.765 5.949 37.629v0zM632.105 509.185l-36.71 110.13 82.020 82.025c18.145-21.416 29.146-49.060 29.146-79.26 0-50.565-30.72-94.065-74.455-112.895v0zM583.68 744.96c30.2 0 57.844-11 79.27-29.135l-81.655-81.65-106.61 44.411c20.489 39.379 61.614 66.374 108.995 66.374v0zM235.52 570.88c0 16.934 13.786 30.72 30.72 30.72h175.72c1-6.995 2.415-13.844 4.401-20.48h-169.88c-11.295 0-20.48-9.185-20.48-20.48v-327.68h-20.48v337.92zM808.96 181.76c0-16.934-13.786-30.72-30.72-30.72h-532.48c-16.934 0-30.72 13.786-30.72 30.72v30.72h210.964c14.725-13.24 33.565-20.48 53.526-20.48h64.95c19.96 0 38.801 7.24 53.524 20.48h129.036v20.48h-137.359l-3-3c-11.276-11.274-26.255-17.48-42.211-17.48h-64.95c-15.945 0-30.935 6.205-42.211 17.48l-2.99 3h-157.839v327.68h177.87c23.069-48.355 72.285-81.92 129.33-81.92s106.26 33.565 129.33 81.92h34.51v-348.16h61.44v-30.72zM696.32 335.36c-6.285 0-12.134-1.915-17.010-5.17l-35.725 26.785c0.91 2.899 1.535 5.92 1.535 9.105 0 16.934-13.786 30.72-30.72 30.72s-30.72-13.786-30.72-30.72c0-3.525 0.716-6.86 1.81-10.015l-57.35-45.885c-4.699 2.93-10.199 4.7-16.14 4.7-6.89 0-13.19-2.365-18.319-6.205l-44.156 29.44c0.616 2.405 1.036 4.886 1.036 7.485 0 16.934-13.786 30.72-30.72 30.72s-30.72-13.786-30.72-30.72c0-2.6 0.42-5.080 1.036-7.485l-44.156-29.44c-5.129 3.85-11.429 6.205-18.319 6.205-16.934 0-30.72-13.786-30.72-30.72s13.786-30.72 30.72-30.72 30.72 13.786 30.72 30.72c0 2.6-0.42 5.080-1.036 7.485l44.156 29.44c5.129-3.85 11.429-6.205 18.319-6.205s13.19 2.355 18.319 6.205l44.156-29.44c-0.616-2.405-1.036-4.896-1.036-7.485 0-16.934 13.786-30.72 30.72-30.72s30.72 13.786 30.72 30.72c0 3.525-0.716 6.86-1.81 10.015l57.35 45.885c4.699-2.93 10.199-4.7 16.14-4.7 6.285 0 12.134 1.915 17.010 5.17l35.725-26.785c-0.91-2.899-1.535-5.92-1.535-9.105 0-16.934 13.786-30.72 30.72-30.72s30.72 13.786 30.72 30.72c0 16.934-13.786 30.72-30.72 30.72v0zM327.68 273.92c-5.64 0-10.24 4.6-10.24 10.24s4.6 10.24 10.24 10.24c5.64 0 10.24-4.6 10.24-10.24s-4.6-10.24-10.24-10.24v0zM419.84 335.36c-5.64 0-10.24 4.6-10.24 10.24s4.6 10.24 10.24 10.24 10.24-4.6 10.24-10.24-4.6-10.24-10.24-10.24v0zM512 273.92c-5.64 0-10.24 4.6-10.24 10.24s4.6 10.24 10.24 10.24c5.64 0 10.24-4.6 10.24-10.24s-4.6-10.24-10.24-10.24v0zM614.4 355.84c-5.64 0-10.24 4.6-10.24 10.24s4.6 10.24 10.24 10.24c5.64 0 10.24-4.6 10.24-10.24s-4.6-10.24-10.24-10.24v0zM696.32 294.4c-5.64 0-10.24 4.6-10.24 10.24s4.6 10.24 10.24 10.24 10.24-4.6 10.24-10.24c0-5.64-4.6-10.24-10.24-10.24v0zM460.8 540.16h-163.84v-143.36h163.84v143.36zM440.32 417.28h-122.88v102.4h122.88v-102.4zM337.92 499.2h81.92v-20.48h-81.92v20.48zM337.92 458.24h81.92v-20.48h-81.92v20.48zM481.28 437.76h20.48v-20.48h-20.48v20.48zM522.24 437.76h204.8v-20.48h-204.8v20.48z" />
<glyph unicode="&#xe915;" glyph-name="wordpress" d="M305.66 547.395c-1.371 3.745-4.87 6.285-8.855 6.426-4.010 0.129-7.661-2.156-9.285-5.795-14.12-31.666-21.28-65.316-21.28-100.015 0-47.005 13.32-92.695 38.52-132.136 24.525-38.385 59.099-69.17 99.99-89.029 1.359-0.666 2.825-0.986 4.275-0.986 2.374 0 4.724 0.865 6.565 2.525 2.959 2.67 4.004 6.875 2.634 10.625l-112.564 308.384zM285.82 448.010c0 23.295 3.51 46.075 10.45 68.005l94.56-259.060c-65.361 41.251-105.010 112.351-105.010 191.055v0zM597.789 232.225l-72.454 198.5c-1.411 3.869-5.085 6.435-9.196 6.435-0.029 0-0.060 0-0.090 0-4.145-0.040-7.821-2.684-9.17-6.605l-70.806-205.72c-0.869-2.529-0.664-5.304 0.561-7.68 1.225-2.374 3.37-4.145 5.935-4.9 22.595-6.644 45.955-10.015 69.42-10.015 27.89 0 55.35 4.69 81.615 13.935 2.789 0.979 4.989 3.174 5.975 5.96 0.989 2.79 0.664 5.88-0.886 8.399-0.404 0.66-0.695 1.206-0.905 1.691v0zM511.99 221.82c-18.185 0-36.3 2.2-53.99 6.545l58.41 169.705 60.826-166.644c-21.146-6.376-43.045-9.605-65.245-9.605v0zM624.59 306.030c4.14 0 7.84 2.605 9.23 6.515l26.049 73.38c12.5 32.060 18.57 58.13 18.57 79.7 0 32.515-9.62 49.354-18.109 64.215-0.055 0.090-0.105 0.179-0.16 0.274-0.946 1.531-1.885 3.045-2.811 4.545-10.144 16.385-18.909 30.531-18.909 45.67 0 15.43 11.405 32.084 29.825 32.084 0.305 0 0.769-0.040 1.27-0.079 0.385-0.036 0.769-0.065 1.16-0.091 4.155-0.27 8.005 2.111 9.635 5.93 1.631 3.821 0.671 8.255-2.39 11.060-45.409 41.61-104.344 64.525-165.96 64.525-82.88 0-159.64-41.4-205.33-110.749-1.951-2.961-2.15-6.74-0.52-9.891 1.629-3.145 4.829-5.165 8.37-5.285 6.030-0.2 11.25-0.3 15.515-0.3 22.739 0 56.040 2.45 62.575 2.945 1.044-1.885 1.144-6.376 0.129-8.055-2.575-0.285-13.745-1.491-25.815-2.121-3.059-0.16-5.865-1.74-7.585-4.27-1.724-2.529-2.159-5.724-1.184-8.625l77.26-229.98c1.34-3.99 5.075-6.675 9.28-6.675 0.005 0 0.010 0 0.010 0 4.21 0.005 7.95 2.701 9.28 6.696l51.64 154.87c0.709 2.125 0.669 4.425-0.115 6.525l-28.1 75.114c-1.361 3.63-4.731 6.12-8.6 6.345-11.121 0.645-21.86 1.906-23.8 2.14-0.879 1.87-0.68 6.18 0.36 8.036 6.725-0.506 40.416-2.945 61.765-2.945 22.74 0 56.045 2.45 62.575 2.949 1.050-1.884 1.149-6.38 0.134-8.055-2.569-0.289-13.755-1.495-25.819-2.125-3.066-0.16-5.88-1.745-7.601-4.289-1.72-2.541-2.15-5.741-1.16-8.645l80.069-234.715c1.345-3.94 5.041-6.601 9.206-6.625 0.020 0 0.040 0 0.060 0v0zM557.905 541.62c8.351 0.68 14.39 1.38 14.76 1.425 11.26 1.33 18.551 12.23 17.34 25.925-1.155 13.084-9.629 21.784-20.564 21.13-0.065-0.005-0.131-0.005-0.191-0.010-0.379-0.031-38.125-2.97-62.13-2.97-22.534 0-61.005 2.939-61.395 2.97-0.054 0.005-0.114 0.010-0.174 0.010-11.126 0.669-19.826-8.721-20.63-22.3-0.8-13.56 6.584-23.916 17.619-24.781 1.555-0.189 9.366-1.12 18.725-1.834l24.675-65.956-41.289-123.835-63.905 190.221c8.39 0.68 14.45 1.385 14.83 1.425 11.255 1.33 18.54 12.239 17.33 25.935-1.16 13.079-9.631 21.789-20.561 21.125-0.064-0.005-0.129-0.010-0.189-0.010-0.36-0.031-34.45-2.685-58.445-2.95 42.765 54.82 108.14 87.040 178.28 87.040 49.85 0 97.795-16.3 137.050-46.26-17.715-7.859-30.175-26.235-30.175-47.589 0-20.71 10.615-37.846 21.844-55.981 0.891-1.44 1.791-2.889 2.696-4.36 7.96-13.93 15.455-27.14 15.455-54.364 0-18.856-5.815-43.32-17.29-72.726-0.035-0.095-0.069-0.184-0.105-0.28l-16.69-47.014-66.87 196.015zM727.635 565.91c-2.266 4.141-7.16 6.070-11.645 4.595s-7.276-5.94-6.639-10.615c0.995-7.36 1.499-15.080 1.499-22.945 0-25.75-5.48-51.45-17.249-80.874-0.060-0.146-0.11-0.291-0.165-0.44l-72.065-208.37c-1.34-3.871-0.125-8.165 3.035-10.765 1.796-1.476 4-2.226 6.221-2.226 1.695 0 3.4 0.435 4.929 1.33 36.495 21.276 67.090 51.766 88.485 88.17 22.051 37.526 33.7 80.485 33.7 124.241 0 41.185-10.41 81.96-30.104 117.9v0zM649.42 268.451l62.45 180.564c8.96 22.44 14.531 42.99 17.025 63.095 6.115-20.724 9.265-42.35 9.265-64.1 0-70.56-33.404-137.060-88.74-179.56v0zM518.025 338.815c-5.13 1.71-10.675-1.065-12.385-6.195l-1.304-3.914c-1.71-5.13 1.065-10.675 6.189-12.385 1.030-0.34 2.076-0.506 3.1-0.506 4.1 0 7.921 2.596 9.285 6.701l1.311 3.914c1.705 5.13-1.065 10.675-6.195 12.385v0zM505.949 302.586c-5.13 1.714-10.675-1.061-12.385-6.19l-16.32-48.956c-1.709-5.129 1.066-10.674 6.195-12.384 1.025-0.346 2.070-0.506 3.095-0.506 4.1 0 7.921 2.596 9.29 6.696l16.315 48.96c1.71 5.125-1.060 10.67-6.19 12.38v0z" />
<glyph unicode="&#xe916;" glyph-name="add-24px" d="M810.667 405.333h-256v-256h-85.333v256h-256v85.333h256v256h85.333v-256h256v-85.333z" />
<glyph unicode="&#xe917;" glyph-name="App" horiz-adv-x="1021" d="M170.068 106.759h-34.069v-102.511c0.047-37.55 30.498-67.972 68.055-67.972 0.029 0 0.058 0 0.087 0h613.18c0.073 0 0.16 0 0.247 0 29.388 0 54.409 18.696 63.819 44.842l0.149 0.473-32.079 11.329c-4.865-13.307-17.408-22.638-32.132-22.657h-613.186c-0.016 0-0.036 0-0.055 0-18.775 0-33.998 15.213-34.014 33.984v102.513zM749.211 788.965c-18.836 0.094-34.069 15.385-34.069 34.234 0 0.010 0 0.020 0 0.030v-0.002 78.195l112.154-112.458h-78.085zM698.066 959.724h-493.929c-37.639-0.079-68.122-30.601-68.138-68.247v-68.25h34.069v68.248c0.016 18.773 15.238 33.986 34.014 33.986 0.019 0 0.039 0 0.058 0h476.906v-102.234c0-0.041 0-0.090 0-0.138 0-37.616 30.494-68.11 68.11-68.11 0.019 0 0.039 0 0.058 0h102.231v-153.628h34.096v170.759l-0.221 0.829-0.884 4.697-0.553 1.382-3.426 4.974-170.317 170.759-5.001 3.316-1.575 0.553-4.421 0.829-0.995 0.276zM255.337 891.475h-34.069v-34.262h34.069v34.262zM323.475 891.475h-34.207v-34.262h34.069v34.262zM391.447 891.475h-34.041v-34.262h34.096v34.262zM33.82 448v59.959l152.661 122.405 159.568-143.957c2.925-2.739 6.87-4.422 11.207-4.422 0.062 0 0.124 0 0.186 0.001h-0.009c4.24 0.004 8.113 1.574 11.072 4.161l-0.020-0.017 108.147 92.84 102.234-87.866v-43.104h-545.047zM57.914 686.731l44.016 44.209v-44.209h-44.016zM33.82 551.616v101.129h85.158c0.041 0 0.090-0.001 0.138-0.001 9.314 0 16.867 7.543 16.882 16.854v85.38h442.868v-218.836l-91.182 78.195c-2.942 2.565-6.814 4.13-11.052 4.13s-8.111-1.564-11.072-4.147l0.020 0.017-107.76-92.563-159.209 143.404c-2.925 2.739-6.87 4.422-11.207 4.422-0.062 0-0.124 0-0.186-0.001h0.009c-0.067 0.001-0.146 0.002-0.225 0.002-3.945 0-7.574-1.353-10.448-3.621l0.036 0.027-142.658-114.392zM596.025 788.965h-478.069l-4.559-0.829-1.547-0.553-4.974-3.592-102.234-102.234-3.371-4.974-0.58-1.658-0.884-4.421-0.193-1.105v-238.731c0-0.008 0-0.018 0-0.028 0-9.417 7.61-17.056 17.016-17.103h579.34c9.398 0.063 16.993 7.696 16.993 17.103 0 0.010 0 0.020 0 0.030v-0.002 341.241c0 0 0 0 0 0.001 0 9.309-7.546 16.855-16.855 16.855-0.049 0-0.097 0-0.146-0.001h0.007zM357.488 652.745c-0.041 0-0.090-0.001-0.138-0.001-9.32 0-16.879 7.54-16.91 16.852v0.003c0 9.415 7.633 17.048 17.048 17.048s17.048-7.633 17.048-17.048v0c-0.031-9.316-7.59-16.855-16.91-16.855-0.049 0-0.097 0-0.146 0.001h0.007zM357.488 720.717c-0.008 0-0.018 0-0.028 0-28.231 0-51.117-22.886-51.117-51.117s22.886-51.117 51.117-51.117c28.231 0 51.117 22.886 51.117 51.117v0c0 0.049 0 0.108 0 0.166 0 28.14-22.812 50.951-50.951 50.951-0.049 0-0.097 0-0.146 0h0.008zM176.699 580.628l-85.214-68.248 21.331-26.526 85.131 67.972-21.248 26.802zM464.696 528.13l-34.096-33.986 24.122-24.315 34.069 34.262-24.094 24.039zM595.97 55.642v204.745h340.633v-204.745h-340.633zM953.652 294.372h-374.785c-9.419-0.063-17.033-7.705-17.048-17.13v-238.732c0.015-9.426 7.629-17.069 17.042-17.131h374.736c9.414 0.063 17.021 7.708 17.021 17.131 0 0 0 0 0 0v0 238.731c0 0 0 0 0 0 0 9.422-7.607 17.068-17.015 17.131h-0.006zM686.047 204.019l-34.069-33.986c-3.087-3.123-4.993-7.417-4.993-12.158s1.907-9.035 4.995-12.159l-0.002 0.002 34.069-33.986 24.094 24.039-22.105 22.105 22.105 22.105-24.094 24.039zM846.306 204.019l-24.094-24.039 22.105-22.105-22.105-22.105 24.094-24.039 34.041 33.986c3.074 3.129 4.971 7.421 4.971 12.158s-1.897 9.029-4.974 12.16l0.002-0.003-34.041 33.986zM766.618 230.269l-34.041-136.496 33.019-8.289 34.041 136.496-33.157 8.289zM101.682 175.007v170.482h392.054v-170.482h-391.806zM510.729 379.752h-425.93c-9.41-0.047-17.021-7.686-17.021-17.103 0-0.010 0-0.020 0-0.029v0.002-204.745c0-0.008 0-0.018 0-0.028 0-9.417 7.61-17.056 17.016-17.103h425.823c9.419 0.063 17.033 7.705 17.048 17.13v204.746c-0.015 9.426-7.629 17.069-17.042 17.131h-0.006zM169.957 311.504h-34.069v-34.262h34.069v34.262zM459.501 311.504h-255.475v-34.262h255.475v34.262zM169.957 243.255h-34.069v-34.262h34.069v34.262zM459.501 243.255h-255.475v-34.262h255.475v34.262zM680.935 362.621v170.482h306.703v-170.482h-306.703zM1004.548 567.365h-340.523c-9.426-0.047-17.048-7.699-17.048-17.131 0 0 0 0 0 0v0-204.745c0 0 0 0 0 0 0-9.432 7.623-17.084 17.044-17.131h340.638c9.426 0.047 17.048 7.699 17.048 17.131 0 0 0 0 0 0v0 204.745c0 0 0 0 0 0 0 9.432-7.623 17.084-17.044 17.131h-0.005zM783.252 499.117h-68.11v-34.262h68.11v34.262zM953.597 499.117h-136.275v-34.262h136.275v34.262zM953.597 430.869h-238.454v-34.262h238.454v34.262z" />
<glyph unicode="&#xe918;" glyph-name="arrow_right_alt-24px" d="M683.093 490.667h-512.427v-85.333h512.427v-128l170.24 170.667-170.24 170.667z" />
<glyph unicode="&#xe919;" glyph-name="arrow_right-24px" d="M426.667 234.667l213.333 213.333-213.333 213.333v-426.667z" />
<glyph unicode="&#xe91a;" glyph-name="clock" d="M1022.024 401.226c-9.196 92.478-50.508 179.656-116.336 245.492-56.258 56.25-125.118 92.4-197.57 108.478v50.812c29.592 7.368 51.592 34.148 51.592 65.992 0 37.492-30.506 68-68 68h-144.006c-37.494 0-68-30.508-68-68 0-31.836 22-58.624 51.586-65.992v-50.954c-72.228-16.14-140.86-52.242-196.954-108.344-12.274-12.272-23.594-25.148-33.96-38.538-0.5 0.038-1 0.078-1.516 0.078h-142.524c-11.046 0-20-8.954-20-20s8.954-20 20-20h116.828c-14.664-24.546-26.492-50.336-35.492-76.874h-217.672c-11.046 0-20-8.954-20-20 0-11.048 8.954-20 20-20h206.376c-5.766-25.306-9.080-51.056-9.93-76.876h-88.446c-11.040 0-20-8.954-20-20s8.96-20 20-20h89.086c1.688-25.89 5.844-51.64 12.484-76.876h-129.57c-11.040 0-20-8.952-20-20 0-11.046 8.96-20 20-20h142.336c19.618-51.906 50.282-100.546 92-142.264 65.89-65.892 153.164-107.22 245.742-116.368 13.212-1.304 26.43-1.946 39.632-1.946 78.048 0 155.102 22.586 220.486 65.164 9.258 6.024 11.874 18.414 5.844 27.672-6.032 9.258-18.422 11.876-27.672 5.844-143.118-93.194-334.79-73.046-455.75 47.914-141.922 141.93-141.922 372.86 0 514.79 141.928 141.922 372.858 141.922 514.78 0 120.806-120.806 141.062-312.312 48.18-455.36-6.024-9.258-3.382-21.648 5.876-27.664 9.272-6.016 21.656-3.382 27.664 5.884 49.632 76.428 71.976 168.742 62.906 259.936v0zM519.704 872c0 15.438 12.562 28 28 28h144.006c15.438 0 28-12.562 28-28 0-15.446-12.562-28-28-28h-144.006c-15.438 0-28 12.554-28 28v0zM571.29 761.93v42.062h96.828v-41.992c-32.15 3.828-64.68 3.804-96.828-0.070v0zM891.554 109.508c-5.28 0-10.422-2.14-14.14-5.86-3.742-3.718-5.86-8.874-5.86-14.14 0-5.258 2.118-10.414 5.86-14.14 3.718-3.736 8.86-5.86 14.14-5.86 5.258 0 10.4 2.124 14.142 5.86 3.718 3.726 5.858 8.882 5.858 14.14 0 5.266-2.14 10.422-5.858 14.14-3.742 3.72-8.884 5.86-14.142 5.86v0zM620.008 671.304c-171.078 0-310.258-139.186-310.258-310.264 0-171.080 139.18-310.266 310.258-310.266 171.086 0 310.266 139.186 310.266 310.266 0 171.078-139.18 310.264-310.266 310.264v0zM620.008 90.774c-149.024 0-270.258 121.242-270.258 270.266 0 149.022 121.234 270.264 270.258 270.264 149.032 0 270.266-121.242 270.266-270.264 0-149.024-121.234-270.266-270.266-270.266v0zM746.524 515.836l-99.064-99.054c-8.28 4.094-17.6 6.406-27.452 6.406s-19.164-2.312-27.446-6.406l-44.336 44.328c-7.812 7.812-20.476 7.812-28.288 0-7.814-7.806-7.814-20.47 0-28.282l44.336-44.336c-4.102-8.282-6.414-17.602-6.414-27.452 0-34.266 27.882-62.15 62.148-62.15 34.274 0 62.156 27.884 62.156 62.15 0 9.85-2.32 19.17-6.414 27.452l99.062 99.062c7.806 7.806 7.806 20.47 0 28.282-7.812 7.812-20.476 7.812-28.288 0v0zM620.008 338.89c-12.212 0-22.14 9.938-22.14 22.15 0 12.21 9.928 22.148 22.14 22.148 12.218 0 22.148-9.938 22.148-22.148 0-12.212-9.93-22.15-22.148-22.15v0zM833.852 380.796h-18.532c-11.038 0-20-8.952-20-20 0-11.046 8.962-20 20-20h18.532c11.046 0 20 8.954 20 20 0 11.048-8.954 20-20 20v0zM424.696 381.282h-18.524c-11.048 0-20-8.954-20-20 0-11.048 8.952-20 20-20h18.524c11.046 0 20 8.952 20 20 0 11.046-8.954 20-20 20v0zM620.258 536.352c11.038 0 20 8.952 20 20v18.53c0 11.048-8.962 20-20 20-11.048 0-20-8.952-20-20v-18.53c0-11.048 8.952-20 20-20v0zM619.766 185.726c-11.040 0-20-8.952-20-20v-18.53c0-11.048 8.96-20 20-20 11.046 0 20 8.952 20 20v18.53c0 11.048-8.954 20-20 20v0zM20 257.632c-5.258 0-10.422-2.14-14.14-5.858-3.72-3.72-5.86-8.884-5.86-14.142 0-5.28 2.14-10.422 5.86-14.14 3.726-3.718 8.882-5.86 14.14-5.86s10.422 2.142 14.14 5.86c3.72 3.718 5.86 8.884 5.86 14.14 0 5.258-2.14 10.422-5.86 14.142-3.718 3.718-8.882 5.858-14.14 5.858v0z" />
<glyph unicode="&#xe91b;" glyph-name="Custom-WP" d="M938.779 379.095c-4.785 0.076-9.18 1.685-12.731 4.355l0.056-0.040-63.916 46.386c-5.261 3.93-8.63 10.141-8.63 17.138 0 0.043 0 0.085 0 0.128v-0.007c0 0.181 0.001 0.396 0.001 0.61 0 188.831-153.078 341.909-341.909 341.909-94.38 0-179.828-38.24-241.695-100.072l0.002 0.002c-3.878-3.946-9.272-6.391-15.237-6.391-2.866 0-5.601 0.565-8.098 1.589l0.142-0.052c-7.823 3.396-13.198 11.047-13.215 19.955v161.275c0 0.017 0 0.037 0 0.057 0 7.637 3.938 14.354 9.895 18.231l0.084 0.051c76.277 47.533 168.882 75.715 268.068 75.715 282.97 0 512.366-229.373 512.405-512.334v-0.004c-0.118-7.309-3.549-13.794-8.853-18.033l-0.047-0.036-63.916-46.386c-3.482-2.4-7.755-3.89-12.367-4.044l-0.038-0.001zM896.169 457.844l42.61-31.014 42.341 30.744c-5.43 255.096-213.507 459.811-469.397 459.811-86.763 0-168.029-23.535-237.762-64.569l2.199 1.197v-102.211c63.892 50.278 145.515 80.638 234.229 80.638 0.424 0 0.849-0.001 1.273-0.002h-0.066c208.76-0.382 378.554-166.682 384.56-374.040l0.013-0.554zM511.595-64.27c-282.688 0.153-511.828 229.199-512.135 511.836v0.029c-0.001 0.069-0.001 0.15-0.001 0.231 0 7.347 3.465 13.885 8.849 18.069l0.052 0.039 63.916 46.116c3.482 2.513 7.835 4.019 12.54 4.019s9.058-1.506 12.604-4.063l-0.064 0.044 63.646-46.386c5.41-3.893 8.893-10.169 8.9-17.259v-0.001c0-0.181-0.001-0.396-0.001-0.61 0-188.831 153.078-341.909 341.909-341.909 94.38 0 179.828 38.24 241.695 100.072l-0.002-0.002c3.912 3.792 9.253 6.129 15.14 6.129 2.9 0 5.668-0.567 8.198-1.597l-0.146 0.052c7.813-3.206 13.215-10.754 13.215-19.564 0-0.043 0-0.086 0-0.13v0.007-161.273c0.001-0.076 0.002-0.166 0.002-0.256 0-7.565-4.077-14.178-10.153-17.761l-0.096-0.052c-76.135-47.572-168.61-75.782-267.674-75.782-0.139 0-0.278 0-0.416 0h0.022zM42.341 437.887c5.577-254.98 213.595-459.545 469.392-459.545 86.765 0 168.034 23.536 237.769 64.572l-2.2-1.197v101.942c-63.891-50.116-145.443-80.37-234.062-80.37-0.578 0-1.156 0.001-1.734 0.004h0.089c-208.572 0.246-378.267 166.352-384.291 373.5l-0.013 0.556-42.61 31.014zM254.854 683.302h0.003c11.751 0.031 21.272 9.551 21.302 21.305v161.273c0 11.767-9.539 21.305-21.305 21.305s-21.305-9.539-21.305-21.305v-161.266c0-0.047 0-0.095 0-0.143 0-11.692 9.478-21.17 21.17-21.17 0.048 0 0.095 0 0.135 0zM511.595 184.381c-145.383 0.080-263.209 117.955-263.209 263.349 0 145.444 117.905 263.349 263.349 263.349s263.349-117.905 263.349-263.349c0-72.723-29.477-138.561-77.136-186.218v0c-47.451-47.647-113.11-77.131-185.655-77.131-0.246 0-0.491 0-0.737 0.001h0.038zM511.595 668.199c-121.601-0.212-220.097-98.838-220.097-220.468 0-121.762 98.707-220.469 220.469-220.469s220.469 98.707 220.469 220.469c0 60.94-24.725 116.105-64.69 156.011l-0.003 0.003c-39.709 39.82-94.626 64.457-155.297 64.457-0.299 0-0.598-0.001-0.897-0.002h0.046zM583.602 303.853h-143.743c-0.024 0-0.053 0-0.081 0-21.999 0-39.833 17.834-39.833 39.833 0 0.028 0 0.057 0 0.085v-0.004 113.268c0.046 22.025 17.888 39.868 39.909 39.914h143.747c22.025-0.046 39.868-17.888 39.914-39.909v-113.272c0-0.024 0-0.053 0-0.081 0-21.999-17.834-39.833-39.833-39.833-0.028 0-0.057 0-0.085 0h0.004zM442.556 346.463h138.349v107.605h-138.349v-107.605zM577.669 454.068h0.003c11.751 0.031 21.272 9.551 21.302 21.305v44.229c0 48.034-38.94 86.974-86.974 86.974s-86.974-38.94-86.974-86.974v-44.229l0.009-0.1c1.243-10.734 10.364-19.066 21.431-19.066s20.188 8.333 21.44 19.167v44.229c0 24.427 19.802 44.229 44.229 44.229s44.229-19.802 44.229-44.229v-44.232c0.031-11.751 9.551-21.272 21.305-21.302z" />
<glyph unicode="&#xe91c;" glyph-name="dashboard-24px" d="M128 405.333h341.333v426.667h-341.333v-426.667zM128 64h341.333v256h-341.333v-256zM554.667 64h341.333v426.667h-341.333v-426.667zM554.667 832v-256h341.333v256h-341.333z" />
<glyph unicode="&#xe91d;" glyph-name="description-24px" d="M597.333 874.667h-341.333c-46.933 0-84.907-38.4-84.907-85.333l-0.427-682.667c0-46.933 37.973-85.333 84.907-85.333h512.427c46.933 0 85.333 38.4 85.333 85.333v512l-256 256zM682.667 192h-341.333v85.333h341.333v-85.333zM682.667 362.667h-341.333v85.333h341.333v-85.333zM554.667 576v234.667l234.667-234.667h-234.667z" />
<glyph unicode="&#xe91e;" glyph-name="email-24px" d="M853.333 789.333h-682.667c-46.933 0-84.907-38.4-84.907-85.333l-0.427-512c0-46.933 38.4-85.333 85.333-85.333h682.667c46.933 0 85.333 38.4 85.333 85.333v512c0 46.933-38.4 85.333-85.333 85.333zM853.333 618.667l-341.333-213.333-341.333 213.333v85.333l341.333-213.333 341.333 213.333v-85.333z" />
<glyph unicode="&#xe91f;" glyph-name="extension-24px-1" d="M874.667 490.667h-64v170.667c0 46.933-38.4 85.333-85.333 85.333h-170.667v64c0 58.88-47.787 106.667-106.667 106.667s-106.667-47.787-106.667-106.667v-64h-170.667c-46.933 0-84.907-38.4-84.907-85.333v-162.133h63.573c63.573 0 115.2-51.627 115.2-115.2s-51.627-115.2-115.2-115.2h-64v-162.133c0-46.933 38.4-85.333 85.333-85.333h162.133v64c0 63.573 51.627 115.2 115.2 115.2s115.2-51.627 115.2-115.2v-64h162.133c46.933 0 85.333 38.4 85.333 85.333v170.667h64c58.88 0 106.667 47.787 106.667 106.667s-47.787 106.667-106.667 106.667z" />
<glyph unicode="&#xe920;" glyph-name="forum-24px" d="M896 704h-85.333v-384h-554.667v-85.333c0-23.467 19.2-42.667 42.667-42.667h469.333l170.667-170.667v640c0 23.467-19.2 42.667-42.667 42.667zM725.333 448v384c0 23.467-19.2 42.667-42.667 42.667h-554.667c-23.467 0-42.667-19.2-42.667-42.667v-597.333l170.667 170.667h426.667c23.467 0 42.667 19.2 42.667 42.667z" />
<glyph unicode="&#xe921;" glyph-name="layers" d="M841.216 337.074l182.782 104.93-193.224 110.926 193.224 110.926-511.998 293.926-511.998-293.928 193.224-110.926-193.224-110.924 182.78-104.93-182.782-104.928 512-293.926 512 293.926-182.784 104.928zM160.58 663.854l351.42 201.744 351.42-201.742-351.42-201.742-351.42 201.74zM160.58 442.004l112.936 64.834 238.484-136.908 238.484 136.908 112.936-64.834-351.42-201.74-351.42 201.74zM160.58 232.146l102.492 58.838 248.928-142.904 248.928 142.904 102.492-58.838-351.42-201.742-351.42 201.742z" />
<glyph unicode="&#xe922;" glyph-name="list-24px" d="M128 405.333h85.333v85.333h-85.333v-85.333zM128 234.667h85.333v85.333h-85.333v-85.333zM128 576h85.333v85.333h-85.333v-85.333zM298.667 405.333h597.333v85.333h-597.333v-85.333zM298.667 234.667h597.333v85.333h-597.333v-85.333zM298.667 661.333v-85.333h597.333v85.333h-597.333z" />
<glyph unicode="&#xe923;" glyph-name="local_library-24px" d="M512 467.2c-100.693 93.867-235.52 151.467-384 151.467v-469.333c148.48 0 283.307-57.6 384-151.467 100.693 93.44 235.52 151.467 384 151.467v469.333c-148.48 0-283.307-57.6-384-151.467zM512 618.667c70.827 0 128 57.173 128 128s-57.173 128-128 128-128-57.173-128-128 57.173-128 128-128z" />
<glyph unicode="&#xe924;" glyph-name="notifications-24px" d="M512 21.333c46.933 0 85.333 38.4 85.333 85.333h-170.667c0-46.933 37.973-85.333 85.333-85.333zM768 277.333v213.333c0 130.987-69.973 240.64-192 269.653v29.013c0 35.413-28.587 64-64 64s-64-28.587-64-64v-29.013c-122.453-29.013-192-138.24-192-269.653v-213.333l-85.333-85.333v-42.667h682.667v42.667l-85.333 85.333z" />
<glyph unicode="&#xe925;" glyph-name="office" d="M512 704v204.8h-512v-921.6h1024v716.8h-512zM204.8 89.6h-102.4v102.4h102.4v-102.4zM204.8 294.4h-102.4v102.4h102.4v-102.4zM204.8 499.2h-102.4v102.4h102.4v-102.4zM204.8 704h-102.4v102.4h102.4v-102.4zM409.6 89.6h-102.4v102.4h102.4v-102.4zM409.6 294.4h-102.4v102.4h102.4v-102.4zM409.6 499.2h-102.4v102.4h102.4v-102.4zM409.6 704h-102.4v102.4h102.4v-102.4zM921.6 89.6h-409.6v102.4h102.4v102.4h-102.4v102.4h102.4v102.4h-102.4v102.4h409.6v-512zM819.2 499.2h-102.4v-102.4h102.4v102.4zM819.2 294.4h-102.4v-102.4h102.4v102.4z" />
<glyph unicode="&#xe926;" glyph-name="people-24px" d="M682.667 490.667c70.827 0 127.573 57.173 127.573 128s-56.747 128-127.573 128c-70.827 0-128-57.173-128-128s57.173-128 128-128zM341.333 490.667c70.827 0 127.573 57.173 127.573 128s-56.747 128-127.573 128c-70.827 0-128-57.173-128-128s57.173-128 128-128zM341.333 405.333c-99.413 0-298.667-49.92-298.667-149.333v-106.667h597.333v106.667c0 99.413-199.253 149.333-298.667 149.333zM682.667 405.333c-12.373 0-26.453-0.853-41.387-2.133 49.493-35.84 84.053-84.053 84.053-147.2v-106.667h256v106.667c0 99.413-199.253 149.333-298.667 149.333z" />
<glyph unicode="&#xe927;" glyph-name="Phone-01" d="M967.111 248.889c-0.156 0-0.34 0-0.524 0-72.433 0-142.094 11.867-207.145 33.763l4.576-1.336c-5.234 1.731-11.259 2.73-17.518 2.73-15.658 0-29.857-6.251-40.235-16.394l0.011 0.011-125.156-125.724c-162.115 83.898-291 212.782-372.643 370.122l-2.255 4.776 125.156 125.156c10.301 10.398 16.666 24.712 16.666 40.512 0 6.257-0.998 12.281-2.844 17.921l0.115-0.407c-20.56 60.475-32.427 130.136-32.427 202.569 0 0.184 0 0.369 0 0.553v-0.029c0.001 0.119 0.001 0.259 0.001 0.4 0 31.199-25.292 56.491-56.491 56.491-0.141 0-0.281-0.001-0.421-0.002h-199.089c-0.119 0.001-0.259 0.001-0.4 0.001-31.199 0-56.491-25.292-56.491-56.491 0-0.141 0.001-0.281 0.002-0.421v0.022c0-534.121 432.99-967.111 967.111-967.111v0c31.419 0 56.889 25.47 56.889 56.889v0 199.111c0.001 0.119 0.001 0.259 0.001 0.4 0 31.199-25.292 56.491-56.491 56.491-0.141 0-0.281-0.001-0.421-0.002h0.022zM910.222 448h113.778c0 282.77-229.23 512-512 512v0-113.778c219.932 0 398.222-178.29 398.222-398.222v0zM682.667 448h113.778c0 157.094-127.35 284.444-284.444 284.444v0-113.778c94.257 0 170.667-76.41 170.667-170.667v0z" />
<glyph unicode="&#xe928;" glyph-name="phone_in_talk-24px" d="M853.333 298.667c-53.333 0-104.533 8.533-152.32 24.32-14.933 4.693-31.573 1.28-43.52-10.24l-93.867-93.867c-120.747 61.44-219.733 160-281.173 281.173l93.867 94.293c11.947 11.093 15.36 27.733 10.667 42.667-15.787 47.787-24.32 98.987-24.32 152.32 0 23.467-19.2 42.667-42.667 42.667h-149.333c-23.467 0-42.667-19.2-42.667-42.667 0-400.64 324.693-725.333 725.333-725.333 23.467 0 42.667 19.2 42.667 42.667v149.333c0 23.467-19.2 42.667-42.667 42.667zM810.667 448h85.333c0 212.053-171.947 384-384 384v-85.333c165.12 0 298.667-133.547 298.667-298.667zM640 448h85.333c0 117.76-95.573 213.333-213.333 213.333v-85.333c70.827 0 128-57.173 128-128z" />
<glyph unicode="&#xe929;" glyph-name="question_answer-24px" d="M896 704h-85.333v-384h-554.667v-85.333c0-23.467 19.2-42.667 42.667-42.667h469.333l170.667-170.667v640c0 23.467-19.2 42.667-42.667 42.667zM725.333 448v384c0 23.467-19.2 42.667-42.667 42.667h-554.667c-23.467 0-42.667-19.2-42.667-42.667v-597.333l170.667 170.667h426.667c23.467 0 42.667 19.2 42.667 42.667z" />
<glyph unicode="&#xe92a;" glyph-name="reorder-24px" d="M128 320h768v85.333h-768v-85.333zM128 149.333h768v85.333h-768v-85.333zM128 490.667h768v85.333h-768v-85.333zM128 746.667v-85.333h768v85.333h-768z" />
<glyph unicode="&#xe92b;" glyph-name="school-24px" d="M213.333 397.653v-170.667l298.667-162.987 298.667 162.987v170.667l-298.667-162.987-298.667 162.987zM512 832l-469.333-256 469.333-256 384 209.493v-294.827h85.333v341.333l-469.333 256z" />
<glyph unicode="&#xe92c;" glyph-name="SEO" d="M461.726-64c-0.004 0-0.009 0-0.014 0-3.805 0-7.355 1.089-10.356 2.973l0.081-0.048-221.867 128.488c-101.973 61.638-169.096 171.905-169.096 297.849 0 5.518 0.129 11.006 0.384 16.462l-0.029-0.772 14.629 447.634c0.392 10.989 9.395 19.749 20.443 19.749 0.013 0 0.026 0 0.039 0h178.15l176.957 108.739c3.044 1.949 6.756 3.107 10.74 3.107s7.696-1.158 10.821-3.155l-0.081 0.048 177.201-108.739h177.981c0.004 0 0.008 0 0.013 0 11.054 0 20.062-8.757 20.466-19.712l0.001-0.037 5.486-167.010c0.006-0.182 0.009-0.395 0.009-0.61 0-11.316-9.173-20.489-20.489-20.489-11.101 0-20.141 8.829-20.479 19.848l-0.001 0.031-4.876 147.017h-163.913c-0.035 0-0.076 0-0.118 0-3.917 0-7.58 1.088-10.702 2.978l0.092-0.052-171.374 105.326-171.154-105.082c-2.947-1.987-6.578-3.171-10.485-3.171-0.094 0-0.187 0.001-0.281 0.002h-164.094l-13.922-427.642c-0.22-4.336-0.345-9.414-0.345-14.521 0-110.835 59.019-207.885 147.344-261.438l1.359-0.765 211.578-122.636 211.602 122.636c11.14 6.383 20.584 12.67 29.587 19.506l-0.671-0.489c3.436 2.7 7.824 4.329 12.593 4.329 11.311 0 20.48-9.169 20.48-20.48 0-6.757-3.273-12.75-8.32-16.481l-0.056-0.039c-9.468-7.194-20.252-14.441-31.445-21.071l-1.591-0.872-221.867-128.488c-2.92-1.837-6.47-2.926-10.276-2.926-0.048 0-0.095 0-0.142 0.001h0.007zM461.726 46.933c-3.809 0.007-7.363 1.095-10.372 2.974l0.083-0.048-173.641 100.693c-73.247 44.647-121.409 124.096-121.409 214.794 0 4.374 0.112 8.722 0.333 13.041l-0.025-0.605 11.605 354.987c0.405 10.992 9.413 19.749 20.467 19.749 0.005 0 0.009 0 0.014 0h117.272l145.31 85.090c2.982 1.725 6.559 2.743 10.374 2.743s7.393-1.018 10.476-2.797l-0.101 0.054 145.286-85.090h117.297c11.311 0 20.48-9.169 20.48-20.48s-9.169-20.48-20.48-20.48c0 0 0 0 0 0h-122.734c-0.026 0-0.056 0-0.087 0-3.805 0-7.355 1.089-10.356 2.974l0.081-0.048-139.727 81.676-139.727-81.676c-2.92-1.836-6.47-2.926-10.275-2.926-0.031 0-0.061 0-0.092 0h-103.005l-10.947-334.994c-0.184-3.293-0.289-7.147-0.289-11.025 0-75.727 40.037-142.102 100.099-179.113l0.908-0.521 163.352-94.842 112.152 65.097c3.021 1.858 6.68 2.958 10.596 2.958 11.297 0 20.456-9.158 20.456-20.456 0-7.631-4.179-14.286-10.372-17.802l-0.101-0.053-122.368-70.949c-2.938-1.837-6.507-2.926-10.331-2.926-0.054 0-0.107 0-0.161 0.001h0.008zM734.793 147.383h-65.268c-10.283 0.012-18.796 7.574-20.295 17.44l-0.014 0.114-5.778 40.472c-16.473 4.766-30.798 10.91-44.153 18.556l0.975-0.514-32.719-24.625c-3.379-2.562-7.655-4.105-12.291-4.105-5.68 0-10.82 2.315-14.526 6.054l-0.001 0.001-46.178 46.080c-3.71 3.714-6.004 8.843-6.004 14.507 0 4.642 1.541 8.925 4.139 12.364l-0.037-0.052 24.552 32.67c-7.024 12.36-13.11 26.676-17.51 41.713l-0.362 1.442-40.546 5.608c-10.021 1.548-17.603 10.111-17.603 20.446 0 0.012 0 0.024 0 0.036v-0.002 65.097c0 0 0 0.001 0 0.002 0 10.286 7.601 18.797 17.493 20.222l0.11 0.013 40.497 5.851c4.803 16.491 10.886 30.804 18.411 44.199l-0.539-1.045-24.381 32.67c-2.552 3.389-4.086 7.669-4.086 12.308 0 5.663 2.288 10.792 5.989 14.512l-0.001-0.001 46.178 46.080c3.719 3.617 8.803 5.847 14.407 5.847 4.681 0 8.998-1.555 12.463-4.178l-0.052 0.038 32.695-24.381c12.404 7.074 26.762 13.142 41.859 17.457l1.393 0.341 5.754 40.472c1.414 9.971 9.893 17.555 20.143 17.555 0.059 0 0.117 0 0.175-0.001h65.259c0.049 0 0.108 0.001 0.166 0.001 10.25 0 18.729-7.584 20.13-17.447l0.013-0.108 5.803-40.472c16.476-4.674 30.816-10.74 44.191-18.313l-0.988 0.514 32.744 24.381c3.403 2.636 7.733 4.226 12.434 4.226 5.613 0 10.697-2.266 14.386-5.933l-0.001 0.001 46.153-46.080c3.71-3.714 6.004-8.843 6.004-14.507 0-4.642-1.541-8.925-4.139-12.364l0.037 0.052-24.527-32.67c6.983-12.353 13.052-26.669 17.456-41.695l0.367-1.459 40.57-5.851c10.002-1.437 17.603-9.948 17.603-20.235 0-0.001 0-0.001 0-0.002v0-65.097c0-0.018 0-0.038 0-0.059 0-10.321-7.571-18.873-17.463-20.406l-0.116-0.015-40.57-5.608c-4.789-16.487-10.873-30.801-18.407-44.19l0.536 1.036 24.552-32.67c2.57-3.386 4.118-7.67 4.118-12.317 0-5.666-2.301-10.794-6.019-14.502v0l-46.153-46.080c-3.705-3.744-8.844-6.063-14.525-6.063-4.638 0-8.915 1.545-12.344 4.149l0.051-0.037-32.768 24.625c-12.342-7.007-26.649-13.143-41.658-17.655l-1.497-0.387-5.827-40.472c-1.525-9.99-10.056-17.554-20.354-17.554-0.001 0-0.003 0-0.004 0v0zM687.323 188.343h29.72l5.242 36.571c1.22 8.532 7.603 15.286 15.837 17.043l0.133 0.024c21.235 4.687 39.999 12.701 56.741 23.566l-0.665-0.404c3.162 2.072 7.036 3.305 11.198 3.305 4.614 0 8.875-1.515 12.311-4.075l-0.055 0.039 29.55-22.187 21.016 20.968-22.162 29.501c-2.563 3.374-4.106 7.645-4.106 12.277 0 4.138 1.232 7.989 3.349 11.206l-0.048-0.077c10.516 15.993 18.543 34.682 22.98 54.72l0.207 1.112c1.776 8.396 8.522 14.813 16.954 16.078l0.112 0.014 36.571 5.12v29.745l-36.571 5.364c-8.482 1.246-15.201 7.554-17.041 15.711l-0.026 0.137c-4.542 21.149-12.554 39.85-23.495 56.449l0.382-0.617c-2.059 3.136-3.285 6.98-3.285 11.11 0 4.639 1.546 8.916 4.151 12.346l-0.037-0.051 22.138 29.501-21.016 20.968-29.55-21.943c-3.39-2.653-7.714-4.254-12.412-4.254-4.107 0-7.928 1.223-11.118 3.325l0.076-0.047c-15.987 10.651-34.724 18.688-54.849 22.974l-1.056 0.188c-8.404 1.752-14.827 8.512-16.054 16.957l-0.013 0.11-5.218 36.571h-29.672l-5.218-36.328c-1.29-8.573-7.647-15.366-15.877-17.283l-0.141-0.028c-21.227-4.437-40.020-12.39-56.702-23.302l0.626 0.384c-3.155-2.126-7.042-3.394-11.225-3.394-4.627 0-8.891 1.551-12.302 4.161l0.049-0.036-29.525 21.943-20.992-20.968 22.114-29.501c2.552-3.372 4.088-7.637 4.088-12.261 0-4.145-1.234-8.001-3.355-11.222l0.048 0.077c-10.585-15.98-18.62-34.679-22.988-54.748l-0.198-1.085c-1.868-8.346-8.567-14.718-16.947-16.075l-0.119-0.016-36.571-5.12v-29.745l36.571-5.12c8.544-1.278 15.29-7.696 17.043-15.958l0.024-0.134c4.564-21.15 12.582-39.849 23.521-56.452l-0.383 0.62c2.070-3.139 3.302-6.99 3.302-11.129 0-4.632-1.543-8.903-4.143-12.328l0.037 0.051-22.138-29.501 20.992-20.968 29.501 22.187c3.383 2.518 7.643 4.031 12.257 4.031 4.161 0 8.035-1.231 11.277-3.348l-0.079 0.049c16.082-10.438 34.842-18.449 54.929-22.946l1.147-0.216c8.393-1.761 14.806-8.519 16.030-16.957l0.013-0.109zM702.171 299.52c-59.914 0.097-108.446 48.689-108.446 108.617 0 59.988 48.63 108.617 108.617 108.617s108.617-48.63 108.617-108.617c0-0.043 0-0.086 0-0.129v0.007c-0.097-59.941-48.711-108.495-108.666-108.495-0.043 0-0.086 0-0.129 0h0.007zM702.171 475.794c-37.313-0.069-67.535-30.334-67.535-67.657 0-37.366 30.291-67.657 67.657-67.657 37.323 0 67.588 30.222 67.657 67.528v0.007c-0.069 37.405-30.374 67.71-67.772 67.779h-0.007z" />
<glyph unicode="&#xe92d;" glyph-name="tag_faces-24px" d="M511.573 874.667c-235.52 0-426.24-191.147-426.24-426.667s190.72-426.667 426.24-426.667c235.947 0 427.093 191.147 427.093 426.667s-191.147 426.667-427.093 426.667zM512 106.667c-188.587 0-341.333 152.747-341.333 341.333s152.747 341.333 341.333 341.333 341.333-152.747 341.333-341.333-152.747-341.333-341.333-341.333zM661.333 490.667c35.413 0 64 28.587 64 64s-28.587 64-64 64-64-28.587-64-64 28.587-64 64-64zM362.667 490.667c35.413 0 64 28.587 64 64s-28.587 64-64 64-64-28.587-64-64 28.587-64 64-64zM512 213.333c99.413 0 183.893 62.293 218.027 149.333h-436.053c34.133-87.040 118.613-149.333 218.027-149.333z" />
<glyph unicode="&#xe92e;" glyph-name="trending_flat-24px" d="M938.667 448l-170.667 170.667v-128h-640v-85.333h640v-128z" />
<glyph unicode="&#xe930;" glyph-name="Video_play" d="M232.107-65.024h-0.58c-72.242 3.933-129.332 63.471-129.332 136.343 0 1.867 0.037 3.726 0.112 5.575l-0.008-0.265v742.059c-0.021 0.901-0.033 1.963-0.033 3.028 0 50.092 26.279 94.045 65.802 118.827l0.586 0.342c17.943 11.348 39.783 18.083 63.196 18.083 25.382 0 48.915-7.915 68.265-21.412l-0.389 0.257 560.196-372.736c37.469-26.709 61.61-70.014 61.61-118.957 0-49.149-24.344-92.611-61.632-118.988l-0.456-0.306-404.958-267.947c-5.458-3.557-12.137-5.673-19.311-5.673-13.601 0-25.426 7.605-31.454 18.795l-0.094 0.19c-3.458 5.96-5.499 13.115-5.499 20.746 0 14.075 6.943 26.528 17.591 34.122l0.128 0.087 405.026 267.605c16.231 11.467 26.701 30.153 26.701 51.284 0 21.028-10.368 39.635-26.271 50.987l-0.191 0.129-560.196 372.736c-8.154 5.644-18.255 9.016-29.143 9.016-10.007 0-19.348-2.848-27.258-7.777l0.218 0.127c-17.214-10.876-28.479-29.803-28.479-51.361 0-0.424 0.004-0.846 0.013-1.268l-0.001 0.063v-742.059c-0.025-0.651-0.040-1.416-0.040-2.184 0-31.575 24.498-57.427 55.524-59.587l0.187-0.010c10.897 0.541 20.82 4.301 28.95 10.341l-0.142-0.101c5.458 3.557 12.137 5.673 19.311 5.673 13.601 0 25.426-7.605 31.454-18.795l0.094-0.19c3.427-5.944 5.448-13.073 5.448-20.674 0-14.108-6.964-26.589-17.642-34.193l-0.129-0.087c-18.786-13.164-41.98-21.251-67.028-21.843l-0.146-0.003z" />
<glyph unicode="&#xe931;" glyph-name="watch" d="M512-64c-136.76 0-265.333 53.261-362.043 149.957-96.696 96.709-149.957 225.283-149.957 362.043s53.261 265.333 149.957 362.043c96.709 96.696 225.283 149.957 362.043 149.957s265.333-53.261 362.043-149.957c96.696-96.709 149.957-225.283 149.957-362.043s-53.261-265.333-149.957-362.043c-96.709-96.696-225.283-149.957-362.043-149.957v0zM512 900c-120.728 0-234.24-47.021-319.613-132.387-85.365-85.373-132.387-198.885-132.387-319.613s47.021-234.24 132.387-319.613c85.373-85.365 198.885-132.387 319.613-132.387s234.24 47.021 319.613 132.387c85.365 85.373 132.387 198.885 132.387 319.613s-47.021 234.24-132.387 319.613c-85.373 85.365-198.885 132.387-319.613 132.387v0zM482 839.928h60v-80.061h-60v80.061zM711.208 689.677l56.605 56.613 42.416-42.427-56.605-56.603-42.416 42.416zM823.864 478h80.061v-60h-80.061v60zM711.157 206.261l42.416 42.427 56.603-56.605-42.416-42.427-56.603 56.605zM482 136.136h60v-80.061h-60v80.061zM213.552 192.136l56.605 56.603 42.416-42.416-56.605-56.613-42.416 42.427zM120.072 478h80.061v-60h-80.061v60zM213.605 703.917l42.416 42.427 56.603-56.605-42.416-42.427-56.603 56.605zM723.781 418h-241.781v241.781h60v-181.781h181.781v-60z" />
<glyph unicode="&#xe932;" glyph-name="Web" d="M392.499 709.734v0c11.028 0 19.968 8.94 19.968 19.968s-8.94 19.968-19.968 19.968h-186.020c-11.028 0-19.968-8.94-19.968-19.968s8.94-19.968 19.968-19.968h186.020zM300.483 625.971v0c11.028 0 19.968 8.94 19.968 19.968s-8.94 19.968-19.968 19.968h-61.133c-11.028 0-19.968-8.94-19.968-19.968s8.94-19.968 19.968-19.968h61.133zM403.497 542.003v0c11.028 0 19.968 8.94 19.968 19.968s-8.94 19.968-19.968 19.968h-198.349c-11.028 0-19.968-8.94-19.968-19.968s8.94-19.968 19.968-19.968h198.349zM307.323 458.24h0.002c11.008 0.023 19.925 8.954 19.925 19.968 0 11.028-8.94 19.968-19.968 19.968-0.014 0-0.029 0-0.041 0h-67.973c-11.028 0-19.968-8.94-19.968-19.968s8.94-19.968 19.968-19.968h67.973zM416.85 374.272h0.002c11.008 0.023 19.925 8.954 19.925 19.968 0 11.028-8.94 19.968-19.968 19.968-0.014 0-0.029 0-0.041 0h-219.136c-11.028 0-19.968-8.94-19.968-19.968s8.94-19.968 19.968-19.968h219.136zM947.978 289.28h-871.424c-5.672 0.018-10.791 2.367-14.454 6.139l-0.005 0.005c-3.502 3.6-5.661 8.521-5.661 13.946 0 0.209 0.003 0.417 0.010 0.625l-0.001-0.030 16.855 497.869c0.374 10.711 9.148 19.252 19.916 19.252 0.069 0 0.138 0 0.206-0.001h838.421c0.058 0.001 0.127 0.001 0.196 0.001 10.768 0 19.541-8.541 19.915-19.218l0.001-0.034 15.708-493.978c0.338-1.334 0.533-2.866 0.533-4.443 0-0.022 0-0.044 0-0.066v0.003c-0.023-11.090-9.019-20.070-20.111-20.070-0.007 0-0.014 0-0.022 0h0.001zM97.3 329.216h829.44l-14.582 458.138h-799.293zM974.172 69.325h-924.18c-0.067 0-0.147-0.001-0.227-0.001-27.224 0-49.319 21.959-49.539 49.132v12.309c0 0.048 0 0.105 0 0.162 0 20.003 3.596 39.166 10.178 56.878l-0.368-1.129 47.575 131.072c2.883 7.826 10.273 13.307 18.943 13.312h871.117c8.677-0.003 16.074-5.484 18.919-13.172l0.045-0.14 47.555-131.072c6.226-16.553 9.831-35.686 9.831-55.66 0-0.088 0-0.176 0-0.264v0.014-12.288c-0.232-27.196-22.332-49.152-49.56-49.152-0.073 0-0.145 0-0.218 0h0.011zM90.747 291.123l-42.783-117.76c-4.722-12.653-7.455-27.273-7.455-42.531 0-0.024 0-0.047 0-0.071v0.004-12.288c0.058-5.208 4.288-9.41 9.502-9.421h924.263c5.215 0.011 9.445 4.212 9.503 9.415v12.293c0 0.046 0 0.101 0 0.156 0 15.159-2.741 29.677-7.754 43.087l0.278-0.85-42.762 117.965h-842.793zM535.163 143.258v0c10.971 0 19.866 8.894 19.866 19.866s-8.894 19.866-19.866 19.866h-46.019c-10.971 0-19.866-8.894-19.866-19.866s8.894-19.866 19.866-19.866h46.019zM874.68 213.709v0c11.028 0 19.968 8.94 19.968 19.968s-8.94 19.968-19.968 19.968h-725.115c-11.028 0-19.968-8.94-19.968-19.968s8.94-19.968 19.968-19.968h725.156zM694.845 365.261c-3.333 0.038-6.465 0.867-9.227 2.307l0.113-0.054-89.62 45.056c-31.189 15.026-52.33 46.392-52.33 82.695 0 0.736 0.009 1.469 0.026 2.201l-0.002-0.109 7.004 186.573c0.356 8.616 6.154 15.788 14.032 18.19l0.141 0.037 123.924 38.093c1.775 0.584 3.818 0.922 5.939 0.922s4.164-0.337 6.078-0.961l-0.139 0.039 123.945-38.093c8.008-2.456 13.797-9.618 14.171-18.186l0.001-0.042 7.004-186.573c0.015-0.624 0.024-1.359 0.024-2.096 0-36.308-21.151-67.675-51.803-82.454l-0.547-0.238-89.6-45.056c-2.638-1.376-5.753-2.203-9.057-2.253h-0.016zM590.397 668.365l-6.472-172.442c-0.002-0.153-0.003-0.333-0.003-0.514 0-20.843 12.287-38.816 30.014-47.071l0.32-0.134 80.486-40.55 80.486 40.55c18.045 8.377 30.334 26.342 30.334 47.178 0 0.19-0.001 0.38-0.003 0.569v-0.029l-6.451 172.442-104.448 31.949zM686.182 484.045h0.942l0.054 0.002c6.004 0.343 11.309 3.294 14.835 7.78l74.987 94.578c2.709 3.395 4.328 7.698 4.328 12.38 0 6.376-3.003 12.050-7.717 15.718l0.044-0.033c-3.428 2.684-7.746 4.284-12.437 4.284-6.431 0-12.159-3.006-15.89-7.732l-60.58-76.39-42.337 44.242c-3.681 3.789-8.83 6.143-14.53 6.143-5.392 0-10.292-2.107-13.912-5.534l-0.012-0.011c-3.864-3.587-6.282-8.71-6.282-14.398 0-5.305 2.103-10.119 5.517-13.648l58.379-61.042c3.634-3.899 8.815-6.337 14.565-6.337 0.016 0 0.033 0 0.047 0z" />
</font>
</defs>
</svg>
