<?xml version="1.0" encoding="utf-8"?>
<!-- Generator: Adobe Illustrator 22.0.1, SVG Export Plug-In . SVG Version: 6.00 Build 0)  -->
<svg version="1.1" id="Layer_1" xmlns="http://www.w3.org/2000/svg" xmlns:xlink="http://www.w3.org/1999/xlink" x="0px" y="0px"
	 viewBox="0 0 1918.7 1000" style="enable-background:new 0 0 1918.7 1000;" xml:space="preserve">
<style type="text/css">
	.st0{opacity:5.000000e-02;fill:#FFFFFF;enable-background:new    ;}
	.st1{opacity:0.1;fill:#FFFFFF;enable-background:new    ;}
</style>
<g id="Group_1960" transform="translate(319.72 2677)">
	<path id="Path_12074" class="st0" d="M950.8-1677c-15.9-24.3-35.1-46.3-57-65.4c-133-115.7-335.9-116.5-508.9-170.1
		c-87.5-27.1-176.4-76.2-206.1-157.2c-18.5-50.2-11.2-105.2-1.4-157.5c12.3-65.7,28.4-131.2,31-197.9s-9.4-135.9-48.9-191.7
		c-16.7-23.5-37.6-43.6-61.4-60.3h-417.7v1000L950.8-1677z"/>
	<path id="Path_12075" class="st1" d="M615.5-1781.2c-52.1-81.4-138.3-143.7-236.4-170.8c-35.4-9.8-72.5-15.2-108.3-20.4
		c-27.5-4-55.8-8.1-83.3-14.2c-34.9-7.7-65.7-18.6-91.5-32.3c-30.3-16.2-53.7-36.4-69.5-60c-33.8-50.7-31.1-113.2-28.5-173.6
		c2.5-57.8,5.1-117.5-23.7-168c-15.5-27.1-39.3-50-70.9-68.1c-28.4-16.3-62.1-28.1-97.7-34c-41.6-6.9-83.7-6.7-125.5-3.7v1.9
		c41.7-3,83.7-3.2,125.1,3.7c35.3,5.9,68.9,17.5,97,33.7c31.2,18,54.8,40.7,70.2,67.4c28.6,50,26,109.5,23.5,167.1
		c-2.6,60.7-5.4,123.4,28.8,174.7c15.9,23.9,39.6,44.3,70.2,60.6c25.9,13.8,56.9,24.8,92,32.5c27.5,6.1,55.9,10.2,83.4,14.2
		c35.8,5.2,72.8,10.6,108.1,20.3c97.6,27,183.4,88.9,235.3,169.9c20.4,31.9,35.6,66.7,45.2,103.3h2.1
		C651.4-1713.9,636.1-1749.1,615.5-1781.2z"/>
	<path id="Path_12081" class="st0" d="M1083-2107.5c42.8,53.8,47.2,126,38.4,192.3c-8.8,66.3-29,131.5-29.3,198.3
		c-0.1,13,0.8,26.1,2.6,39H1599v-999H851c-39.6,30.3-74.8,66-104.7,105.9c-52.9,71.2-85.9,167.2-41.2,243.1
		c36.3,61.8,112.7,92.1,184.2,115.7S1038-2164.2,1083-2107.5z"/>
	<path id="Path_12082" class="st1" d="M1599-2042.5c-11.9-4.8-23.2-11-33.6-18.6c-57-41.9-80.2-112.5-102.5-180.8
		c-22.5-68.6-45.7-139.4-103.2-181.8c-53.3-39.2-124.3-44-180.1-43.8c-12.6,0-25.4,0.3-37.8,0.6c-49.6,1.1-100.9,2.2-149.1-11
		c-32.9-9.1-63.7-24.7-90.6-45.7c-26.8-20.9-49.1-46.9-65.7-76.6c-13.1-24-22.3-49.9-27-76.8h-2c4.8,27.2,14,53.5,27.3,77.8
		c16.7,29.9,39.2,56.1,66.2,77.2c27.1,21.2,58.1,36.9,91.3,46.1c48.5,13.2,99.9,12.1,149.7,11.1c12.4-0.3,25.2-0.5,37.7-0.6
		c55.5-0.2,126,4.6,178.9,43.4c57,41.9,80.2,112.5,102.5,180.8c22.5,68.5,45.7,139.4,103.2,181.7c10.7,7.9,22.4,14.3,34.8,19.2
		V-2042.5z"/>
	<path id="Path_12087" class="st1" d="M760.7-1720.2c-69.2-36.3-170.5-53.2-264.2-44.2c-39.9,3.9-78.6,12.2-116,20.2
		c-43.3,9.3-88.1,18.9-134.7,21.6c-73.2,4.1-145-9-214.6-21.7c-56-10.2-113.9-20.8-173-22.6c-61.7-1.9-123.8,6.2-177.9,22.5v1.3
		c54-16.5,116-24.6,177.8-22.7c58.8,1.8,116.6,12.3,172.5,22.6c60.8,11.1,123.3,22.5,187.1,22.5c9.4,0,18.8-0.3,28.3-0.8
		c46.9-2.7,91.8-12.3,135.3-21.6c37.3-8,75.9-16.3,115.6-20.1c93.2-9,193.8,7.8,262.5,43.9c22.8,12,42.1,26,57.2,41.4h2.3
		C803.5-1693.7,783.9-1708,760.7-1720.2z"/>
	<path id="Path_12085" class="st1" d="M1599-1818.1c-43.4-38.9-74.5-91.7-86.5-147.7c-2.6-12.2-4.4-24.9-6.2-37.1
		c-3.7-26-7.6-52.9-19.2-76.9c-18.8-38.8-54.8-64.9-89.6-90.1c-24.9-18-50.6-36.7-70.3-60c-26.1-30.9-41.9-71.1-45.7-116.3
		c-3.5-41.8,3-85.8,19-127.3c29.1-75.9,83.4-139.8,141.8-203.5h-2.7c-58.1,63.4-111.9,127.1-140.9,202.8
		c-16,41.8-22.6,86.1-19.1,128.1c3.9,45.6,19.8,86.2,46.2,117.4c19.8,23.5,45.7,42.2,70.7,60.3c34.6,25.1,70.4,51,89,89.4
		c11.5,23.8,15.3,50.5,19,76.4c1.8,12.3,3.6,25,6.2,37.3c12.1,57,44,110.7,88.4,149.9V-1818.1z"/>
</g>
</svg>
